<svg width="50" height="51" viewBox="0 0 50 51" fill="none" xmlns="http://www.w3.org/2000/svg">
<g clip-path="url(#clip0_331_768)">
<path d="M21.1342 39.7981L20.2534 40.6612C20.0801 40.6612 19.9539 39.9729 18.3969 40.0487C17.3836 40.098 17.0709 40.9555 16.9333 41.3017C16.5471 42.2739 16.6102 42.9059 16.6102 43.3596C16.6102 43.8888 16.6102 45.0507 17.1307 45.7983C17.4462 46.2516 18.0928 46.8009 18.5866 46.8009C19.713 46.8009 20.0541 46.3185 20.1967 46.1166L20.1984 46.1143L21.1132 46.9245C20.5454 47.5889 19.6306 47.8806 18.5866 47.8806C16.4682 47.8806 15.7408 46.063 15.5105 45.4783C15.3931 45.1804 15.2074 44.3161 15.238 42.6223C15.2853 40.0001 17.3194 38.8792 18.6543 38.8792C19.804 38.8792 20.5101 39.2778 21.1342 39.7981Z" fill="#69CEF4"/>
<path d="M27.7471 39.2273L27.178 40.3271C27.1409 40.3271 27.2026 40.0952 25.9313 40.0487C25.3267 40.0265 24.9364 40.291 24.6575 40.6612C24.4184 40.9785 24.2971 41.7113 25.0775 42.3458C25.2417 42.4793 26.4841 43.093 26.7258 43.2597C27.3608 43.6975 27.8013 43.9458 28.0714 44.8636C28.0947 44.9426 28.1887 45.2834 27.9639 46.2579C27.7391 47.2325 26.8797 47.576 26.1752 47.8049C25.2401 48.1088 24.2909 47.834 23.9393 47.7137C23.5877 47.5933 23.1668 47.316 23.1668 47.2325C23.1668 47.2325 23.3159 46.3248 23.3701 46.2579C23.4243 46.1911 24.1986 46.7058 25.186 46.7731C25.6772 46.8065 26.5952 46.5315 26.7172 46.0073C26.946 45.0249 26.5915 44.6681 26.1752 44.3901C25.7589 44.1121 24.7727 43.5474 24.4406 43.3482C24.0034 43.086 23.2508 42.68 23.1668 41.413C23.0765 40.0487 23.8114 39.3486 24.8336 38.9906C25.9313 38.6062 26.9873 38.9389 27.7471 39.2273Z" fill="#69CEF4"/>
<path d="M34.1506 39.3029L33.5814 40.4027C33.5444 40.4027 33.6061 40.1708 32.3347 40.1243C31.7301 40.1022 31.3399 40.3666 31.0609 40.7369C30.8219 41.0541 30.7005 41.787 31.481 42.4214C31.6452 42.5549 32.8876 43.1687 33.1292 43.3353C33.7642 43.7732 34.2048 44.0214 34.4749 44.9392C34.4981 45.0182 34.5922 45.359 34.3674 46.3336C34.1426 47.3081 33.2831 47.6517 32.5786 47.8806C31.6435 48.1844 30.6943 47.9097 30.3428 47.7893C29.9912 47.6689 29.5703 47.3916 29.5703 47.3081C29.5703 47.3081 29.7194 46.4004 29.7736 46.3336C29.8278 46.2667 30.602 46.7814 31.5894 46.8487C32.0806 46.8821 32.9986 46.6071 33.1207 46.083C33.3495 45.1006 32.9949 44.7438 32.5786 44.4657C32.1623 44.1877 31.1762 43.623 30.8441 43.4238C30.4068 43.1616 29.6542 42.7556 29.5703 41.4887C29.4799 40.1243 30.2148 39.4242 31.2371 39.0662C32.3347 38.6818 33.3908 39.0145 34.1506 39.3029Z" fill="#69CEF4"/>
<path d="M7 35.9996H43V48.4966C43 49.325 42.3284 49.9966 41.5 49.9966H8.5C7.67157 49.9966 7 49.325 7 48.4966V35.9996Z" stroke="#69CEF4"/>
<path d="M43 34.9996H7V3.08447C7 2.25604 7.67157 1.58447 8.5 1.58447H32.8127L43 12.0213V34.9996Z" stroke="#69CEF4"/>
<path d="M33.1359 11.7651L33.1359 1.26974L43.3891 11.7651L33.1359 11.7651Z" fill="#69CEF4"/>
<path d="M18.5126 11.7199C19.448 11.967 19.5219 12.5808 19.2357 13.1049C18.9495 13.6291 18.0836 13.1049 17.6488 14.1211C17.5936 14.2501 17.6488 17.8507 17.6488 18.4314C17.6488 19.0046 16.8119 20.2962 16.5076 20.4414C16.8554 20.6871 17.6905 21.8372 17.6905 22.9204V25.3132C17.6905 25.8081 17.3293 27.4495 18.5409 27.5843C19.4271 27.6829 19.5844 28.577 19.2142 28.9487C18.8538 29.3106 17.8143 29.3235 17.5439 29.1889C17.3907 29.1127 15.9357 28.3387 15.9357 27.0341C15.9357 26.6909 15.9404 23.5215 15.9404 23.0113C15.9404 22.387 15.6171 21.6373 14.3369 21.366C12.742 21.028 13.4822 19.5793 14.3369 19.5793C15.5314 19.5793 15.6732 18.7556 15.9404 18.2065V13.9759C15.9404 13.8085 16.1271 13.1943 16.2745 12.9898C16.4218 12.7853 17.5773 11.4728 18.5126 11.7199Z" fill="#69CEF4"/>
<path d="M30.6175 11.7199C29.6821 11.967 29.6083 12.5808 29.8945 13.1049C30.1806 13.6291 31.0466 13.1049 31.4813 14.1211C31.5386 14.255 31.4813 17.8507 31.4813 18.4314C31.4813 19.0046 32.3182 20.2962 32.6226 20.4414C32.2748 20.6871 31.4396 21.8372 31.4396 22.9204V25.3132C31.4396 25.8081 31.8008 27.4495 30.5893 27.5843C29.7031 27.6829 29.5458 28.577 29.916 28.9487C30.2763 29.3106 31.3159 29.3235 31.5863 29.1889C31.7394 29.1127 33.1944 28.3387 33.1944 27.0341C33.1944 26.6909 33.1897 23.5215 33.1897 23.0113C33.1897 22.387 33.513 21.6373 34.7932 21.366C36.3881 21.028 35.648 19.5793 34.7932 19.5793C33.5988 19.5793 33.457 18.7556 33.1897 18.2065V13.9759C33.1897 13.7738 33.003 13.1943 32.8557 12.9898C32.7083 12.7853 31.5528 11.4728 30.6175 11.7199Z" fill="#69CEF4"/>
</g>
<defs>
<clipPath id="clip0_331_768">
<rect width="50" height="50" fill="white" transform="translate(0 0.739014)"/>
</clipPath>
</defs>
</svg>
