<svg width="50" height="51" viewBox="0 0 50 51" fill="none" xmlns="http://www.w3.org/2000/svg">
<g clip-path="url(#clip0_331_796)">
<path d="M29.4276 2.74279L36.7992 9.84853L11.649 9.99887L26.5473 2.32049C27.4988 1.8301 28.657 1.9999 29.4276 2.74279Z" stroke="#69CEF4"/>
<path d="M1.82545 30.7976L8.90824 38.1689L8.99981 12.6842L1.39067 27.9503C0.919331 28.8959 1.09338 30.0358 1.82545 30.7976Z" stroke="#69CEF4"/>
<path d="M38.3973 10.8608L49.5 21.8327V41.8857H41.6174L10.5017 10.933L38.0419 10.7165C38.1748 10.7155 38.3027 10.7674 38.3973 10.8608Z" stroke="#69CEF4"/>
<path d="M9.91799 39.3046L20.887 50.3918H40.9295V42.5257L9.77344 11.7077V38.953C9.77344 39.0847 9.82538 39.211 9.91799 39.3046Z" stroke="#69CEF4"/>
<path d="M10.0934 34.5234L10.332 12.3781L40.605 42.1042H17.593C13.4193 42.1042 10.0485 38.6969 10.0934 34.5234Z" stroke="#69CEF4" stroke-opacity="0.5"/>
</g>
<defs>
<clipPath id="clip0_331_796">
<rect width="50" height="50" fill="white" transform="translate(0 0.891846)"/>
</clipPath>
</defs>
</svg>
