<svg width="50" height="58" viewBox="0 0 50 58" fill="none" xmlns="http://www.w3.org/2000/svg">
<g clip-path="url(#clip0_334_85)" filter="url(#filter0_d_334_85)">
<path fill-rule="evenodd" clip-rule="evenodd" d="M32.8841 16.6801H25.0202V18.6667V18.8904V24.8788H25.0209C25.0498 22.8592 25.7976 21.0135 27.0202 19.5856C27.3023 19.256 27.6098 18.9487 27.9395 18.6667C29.2248 17.5674 30.8487 16.8519 32.6332 16.6979L32.6385 16.6975C32.72 16.6905 32.8019 16.6847 32.8841 16.6801ZM27.0229 25.1897V24.8788H27.0212C27.0858 21.4385 29.8977 18.6667 33.3602 18.6667C36.8632 18.6667 39.7003 21.5038 39.7003 25C39.7003 28.4963 36.8632 31.3334 33.3602 31.3334C29.9207 31.3334 27.1232 28.5982 27.0229 25.1897ZM25.0267 25.3359C25.1035 27.2715 25.8411 29.0374 27.0202 30.4145C28.5498 32.2011 30.8227 33.3334 33.3602 33.3334C37.9663 33.3334 41.7003 29.6024 41.7003 25C41.7003 21.9197 40.0276 19.2297 37.5403 17.7874C36.6621 17.2781 35.6822 16.9244 34.6385 16.764C34.375 16.7235 34.1074 16.6953 33.8363 16.6801H34.0962L34.0816 16.636L34.0818 16.636C35.3342 16.5287 36.5075 16.1449 37.5403 15.546C40.0276 14.1037 41.7003 11.4137 41.7003 8.33338C41.7003 3.97393 38.35 0.396327 34.0818 0.0308101C33.844 0.0104426 33.6033 4.85628e-05 33.3602 4.85628e-05C33.1171 4.85628e-05 32.8764 0.0104426 32.6385 0.0308101V4.85628e-05H32.6359H30.6385H19.2214H17.2226H17.2214V0.0184945C17.0453 0.00685523 16.8677 0.000650986 16.6888 4.85628e-05L16.6599 0L16.6311 4.85628e-05C16.4522 0.000650986 16.2746 0.00685523 16.0985 0.0184945C11.7431 0.306371 8.2998 3.91903 8.2998 8.33333C8.2998 11.4141 9.97695 14.1044 12.4708 15.5466C13.3067 16.03 14.2344 16.3731 15.2214 16.5438C15.509 16.5935 15.8016 16.6285 16.0985 16.6482C16.2841 16.6604 16.4713 16.6667 16.6599 16.6667C16.8486 16.6667 17.0358 16.6604 17.2214 16.6482V16.6667L17.2214 16.6852C17.0358 16.6729 16.8486 16.6667 16.6599 16.6667C16.4713 16.6667 16.2841 16.6729 16.0985 16.6852C15.8016 16.7048 15.509 16.7399 15.2214 16.7896C14.2344 16.9603 13.3067 17.3034 12.4708 17.7868C9.97695 19.229 8.29981 21.9193 8.29981 25C8.29981 28.0808 9.97691 30.7711 12.4707 32.2132C13.538 32.8304 14.7548 33.2191 16.0539 33.3118L16.0556 33.3548C14.7559 33.4473 13.5385 33.836 12.4707 34.4535C9.97691 35.8957 8.29981 38.5859 8.29981 41.6667C8.29981 46.269 12.0428 50 16.6599 50C21.1527 50 24.8177 46.4674 25.012 42.0368C25.0174 41.9141 25.0201 41.7907 25.0201 41.6667C25.0201 41.5427 25.0174 41.4193 25.012 41.2966H25.0202V41.2962V39.2966V31.1097V25.3359H25.0267ZM16.7696 1.89511C13.1201 1.89511 10.1616 4.85363 10.1616 8.50316C10.1616 12.1527 13.1201 15.1112 16.7696 15.1112H33.2304C36.8799 15.1112 39.8385 12.1527 39.8385 8.50316C39.8385 4.85363 36.8799 1.89511 33.2304 1.89511H16.7696ZM16.7696 18.392C13.1201 18.392 10.1616 21.3505 10.1616 25C10.1616 28.6496 13.1201 31.6081 16.7696 31.6081H23.1171V18.392H16.7696ZM10.1616 41.5623C10.1616 37.9128 13.1201 34.8885 16.7696 34.8885H23.1171V41.6268C23.1171 45.2044 20.2169 48.1046 16.6393 48.1046C13.0618 48.1046 10.1616 45.1399 10.1616 41.5623Z" fill="#69CEF4"/>
</g>
<defs>
<filter id="filter0_d_334_85" x="-4" y="0" width="58" height="58" filterUnits="userSpaceOnUse" color-interpolation-filters="sRGB">
<feFlood flood-opacity="0" result="BackgroundImageFix"/>
<feColorMatrix in="SourceAlpha" type="matrix" values="0 0 0 0 0 0 0 0 0 0 0 0 0 0 0 0 0 0 127 0" result="hardAlpha"/>
<feOffset dy="4"/>
<feGaussianBlur stdDeviation="2"/>
<feComposite in2="hardAlpha" operator="out"/>
<feColorMatrix type="matrix" values="0 0 0 0 0 0 0 0 0 0 0 0 0 0 0 0 0 0 0.25 0"/>
<feBlend mode="normal" in2="BackgroundImageFix" result="effect1_dropShadow_334_85"/>
<feBlend mode="normal" in="SourceGraphic" in2="effect1_dropShadow_334_85" result="shape"/>
</filter>
<clipPath id="clip0_334_85">
<rect width="50" height="50" fill="white"/>
</clipPath>
</defs>
</svg>
