<svg width="50" height="50" viewBox="0 0 50 50" fill="none" xmlns="http://www.w3.org/2000/svg">
<rect x="0.707107" y="25" width="34.3553" height="34.3553" rx="0.5" transform="rotate(-45 0.707107 25)" stroke="#69CEF4"/>
<path fill-rule="evenodd" clip-rule="evenodd" d="M22.991 11.8039L18.1904 6.9646L16.8065 8.3374L21.632 13.2019C21.2882 13.7933 21.0913 14.4807 21.0913 15.2141C21.0913 17.0924 22.3828 18.669 24.1262 19.1043L24.0681 31.112C22.3542 31.5676 21.0913 33.13 21.0913 34.9873C21.0913 37.2017 22.8864 38.9968 25.1008 38.9968C27.3152 38.9968 29.1103 37.2017 29.1103 34.9873C29.1103 33.0883 27.7902 31.4977 26.0176 31.0831L26.0755 19.1043C26.4344 19.0147 26.7742 18.8767 27.0875 18.6976L31.4911 23.1369C31.1644 23.7173 30.978 24.3873 30.978 25.1008C30.978 27.3152 32.7732 29.1103 34.9875 29.1103C37.2019 29.1103 38.9971 27.3152 38.9971 25.1008C38.9971 22.8864 37.2019 21.0913 34.9875 21.0913C34.1938 21.0913 33.4539 21.322 32.8312 21.7199L28.4953 17.349C28.8849 16.7308 29.1103 15.9988 29.1103 15.2141C29.1103 12.9997 27.3152 11.2046 25.1008 11.2046C24.3267 11.2046 23.6038 11.424 22.991 11.8039Z" fill="#69CEF4"/>
</svg>
