<svg width="50" height="50" viewBox="0 0 50 50" fill="none" xmlns="http://www.w3.org/2000/svg">
<rect x="9.00488" y="38.8188" width="1.44216" height="8.55472" fill="#69CEF4"/>
<rect x="14.3342" y="38.8188" width="1.44216" height="8.55472" fill="#69CEF4"/>
<rect x="10.3923" y="43.6133" width="1.03409" height="3.9419" transform="rotate(-90 10.3923 43.6133)" fill="#69CEF4"/>
<rect x="17.4626" y="39.853" width="1.03409" height="6.73007" transform="rotate(-90 17.4626 39.853)" fill="#69CEF4"/>
<rect x="36.3286" y="47.3737" width="1.03409" height="5.49439" transform="rotate(-90 36.3286 47.3737)" fill="#69CEF4"/>
<rect width="1.05389" height="7.65606" transform="matrix(0.920417 -0.390939 0.405999 0.913874 26.4131 39.231)" fill="#69CEF4"/>
<rect width="1.05389" height="7.65606" transform="matrix(-0.920417 -0.390939 -0.405999 0.913874 33.5996 39.231)" fill="#69CEF4"/>
<rect x="29.5215" y="45.2209" width="0.970014" height="1.0067" fill="#69CEF4"/>
<rect x="20.1375" y="38.8188" width="1.44216" height="8.55472" fill="#69CEF4"/>
<rect x="25.9409" y="38.8188" width="1.44216" height="8.55472" fill="#69CEF4"/>
<rect x="32.6562" y="38.8188" width="1.44216" height="8.55472" fill="#69CEF4"/>
<rect x="36.3286" y="38.8188" width="1.44216" height="8.55472" fill="#69CEF4"/>
<path d="M6.5 35.8828H43.5V48C43.5 48.8284 42.8284 49.5 42 49.5H8C7.17157 49.5 6.5 48.8284 6.5 48V35.8828Z" stroke="#69CEF4"/>
<path d="M43.5 34.8829H6.5V3.83924C6.5 3.01081 7.17157 2.33923 8 2.33923H33.0372L43.5 12.5119V34.8829Z" stroke="#69CEF4"/>
<path d="M33.3558 12.2494L33.3558 2.01978L43.886 12.2494L33.3558 12.2494Z" fill="#69CEF4"/>
<path fill-rule="evenodd" clip-rule="evenodd" d="M16.0687 21.6468L20.7356 26.2714C21.0578 26.5908 21.0544 27.105 20.7279 27.42C20.4014 27.735 19.8755 27.7315 19.5532 27.4121L14.3279 22.2341C14.1637 22.0714 14.0841 21.8581 14.0887 21.6463C14.0847 21.4355 14.1641 21.2234 14.3273 21.0613L19.5466 15.8776C19.8685 15.5578 20.3944 15.5537 20.7212 15.8684C21.0481 16.183 21.0521 16.6972 20.7302 17.0169L16.0687 21.6468Z" fill="#69CEF4"/>
<path fill-rule="evenodd" clip-rule="evenodd" d="M34.7995 21.6468L30.1326 26.2714C29.8104 26.5908 29.8138 27.105 30.1403 27.42C30.4668 27.735 30.9927 27.7315 31.3149 27.4121L36.5403 22.2341C36.7045 22.0714 36.7841 21.8581 36.7795 21.6463C36.7835 21.4355 36.7041 21.2234 36.5408 21.0613L31.3216 15.8776C30.9997 15.5578 30.4738 15.5537 30.1469 15.8684C29.8201 16.183 29.8161 16.6972 30.138 17.0169L34.7995 21.6468Z" fill="#69CEF4"/>
</svg>
