<svg width="50" height="51" viewBox="0 0 50 51" fill="none" xmlns="http://www.w3.org/2000/svg">
<g clip-path="url(#clip0_331_776)">
<path d="M6.5 36.4722H43.5V48.892C43.5 49.7204 42.8284 50.392 42 50.392H8C7.17157 50.392 6.5 49.7204 6.5 48.892V36.4722Z" stroke="#69CEF4"/>
<path d="M43.5 35.4722H6.5V3.73413C6.5 2.9057 7.17157 2.23413 8 2.23413H33.0342L43.5 12.6204V35.4722Z" stroke="#69CEF4"/>
<path d="M33.3558 12.3599L33.3558 1.9185L43.886 12.3599L33.3558 12.3599Z" fill="#69CEF4"/>
<path fill-rule="evenodd" clip-rule="evenodd" d="M17.11 23.0867L22.0438 26.8929C22.3857 27.1567 22.383 27.5808 22.0377 27.8401C21.6924 28.0995 21.1352 28.0959 20.7933 27.8321L15.2709 23.5718C15.0965 23.4373 15.0117 23.2609 15.0164 23.0861C15.0126 22.9122 15.0972 22.737 15.2705 22.603L20.7858 18.3385C21.1276 18.0743 21.6848 18.0701 22.0305 18.3291C22.3762 18.5882 22.3794 19.0124 22.0377 19.2766L17.11 23.0867Z" fill="#69CEF4"/>
<path fill-rule="evenodd" clip-rule="evenodd" d="M27.0243 17.3369C27.172 16.9259 27.6442 16.6256 28.079 16.6661C28.5137 16.7066 28.7464 17.0725 28.5987 17.4834L24.7165 28.2833C24.5687 28.6942 24.0965 28.9945 23.6618 28.9541C23.227 28.9136 22.9943 28.5477 23.142 28.1368L27.0243 17.3369ZM29.4398 26.8928L34.3735 23.0864L29.4457 19.276C29.104 19.0118 29.1072 18.5875 29.4529 18.3285C29.7986 18.0694 30.3558 18.0736 30.6976 18.3379L36.2129 22.6026C36.3853 22.7359 36.47 22.91 36.467 23.0831C36.4727 23.2588 36.388 23.4363 36.2126 23.5715L30.6902 27.832C30.3483 28.0959 29.7912 28.0994 29.4459 27.8401C29.1006 27.5807 29.0978 27.1566 29.4398 26.8928Z" fill="#69CEF4"/>
<path d="M29.5749 40.6301L29.0982 41.5008C29.0672 41.5008 29.1188 41.3172 28.054 41.2803C27.5477 41.2628 27.2208 41.4722 26.9872 41.7653C26.787 42.0164 26.6853 42.5966 27.339 43.0989C27.4765 43.2045 28.5171 43.6904 28.7195 43.8223C29.2513 44.169 29.6203 44.3655 29.8465 45.0921C29.866 45.1546 29.9447 45.4244 29.7565 46.196C29.5682 46.9675 28.8483 47.2394 28.2583 47.4207C27.4751 47.6612 26.6801 47.4437 26.3857 47.3484C26.0912 47.2531 25.7387 47.0336 25.7387 46.9675C25.7387 46.9675 25.8636 46.2489 25.909 46.196C25.9544 46.143 26.6028 46.5505 27.4298 46.6037C27.8412 46.6302 28.6101 46.4125 28.7123 45.9976C28.9039 45.2198 28.607 44.9374 28.2583 44.7173C27.9096 44.4972 27.0837 44.0501 26.8056 43.8924C26.4393 43.6849 25.809 43.3634 25.7387 42.3604C25.663 41.2803 26.2786 40.7261 27.1347 40.4427C28.054 40.1384 28.9385 40.4018 29.5749 40.6301Z" fill="#69CEF4"/>
<path fill-rule="evenodd" clip-rule="evenodd" d="M24.1339 40.3052H22.9618V47.1615C22.9204 46.8905 22.8342 46.6343 22.7108 46.4007C22.5684 46.4647 22.38 46.503 22.1332 46.503C21.1606 46.503 21.0082 46.3737 21.0082 45.4648V45.1478C20.8653 45.1215 20.718 45.1078 20.5675 45.1078H19.865C19.865 46.4455 20.9494 47.5299 22.2871 47.5299H22.9618V47.53C22.9662 47.53 22.9707 47.53 22.9751 47.5299H22.9896C22.9896 47.5298 22.9896 47.5298 22.9896 47.5297C23.6241 47.5149 24.1339 46.9959 24.1339 46.3579V40.3052Z" fill="#69CEF4"/>
</g>
<defs>
<clipPath id="clip0_331_776">
<rect width="50" height="50" fill="white" transform="translate(0 0.891846)"/>
</clipPath>
</defs>
</svg>
