<svg width="50" height="50" viewBox="0 0 50 50" fill="none" xmlns="http://www.w3.org/2000/svg">
<path d="M34.7202 21.2162V24.0947C34.3985 23.8997 33.9944 23.6801 33.0368 23.4054C31.8333 23.06 31.157 23.197 30.8194 23.2842C30.393 23.3943 29.8944 23.9112 30.3522 24.481C30.7081 24.924 32.0139 25.3195 32.3842 25.4731C32.7544 25.6266 34.3085 26.2893 34.9815 27.5978C35.5237 28.6518 35.3042 29.7531 35.0308 30.4247C34.7983 30.996 34.0314 32.0916 32.6512 32.5558C31.6691 32.8861 30.502 32.8645 30.0111 32.8437C28.6782 32.7871 27.9769 32.4699 27.0447 32.0786C27.0472 31.1949 27.0507 29.4198 27.0447 29.3895C27.0373 29.3516 27.2041 29.4773 27.905 29.6622C28.0595 29.703 30.5289 30.4474 31.5239 30.094C32.7621 29.6543 31.8548 28.6258 31.5239 28.4654C30.7829 28.106 29.554 27.6321 28.921 27.3444C26.9889 26.4662 25.7207 22.9063 28.921 21.0799C30.0769 20.4202 32.7354 20.2521 34.7202 21.2162Z" stroke="#69CEF4"/>
<path d="M17.7968 32.422H14.6949L14.6846 17.1461L20.5541 17.1687C23.1128 17.1687 25.4578 19.3297 25.4578 22.5785C25.4578 25.8272 22.3286 27.6694 20.5541 27.6694H17.7968V32.422Z" stroke="#69CEF4"/>
<rect x="0.5" y="0.5" width="49" height="49" rx="0.5" stroke="#69CEF4"/>
</svg>
