<svg width="25" height="25" viewBox="0 0 25 25" fill="none" xmlns="http://www.w3.org/2000/svg">
<g clip-path="url(#clip0_438_5)">
<path d="M17.0388 10.2869V11.7262C16.878 11.6287 16.6759 11.5189 16.1971 11.3815C15.5954 11.2089 15.2572 11.2773 15.0884 11.3209C14.8752 11.376 14.6259 11.6344 14.8548 11.9193C15.0328 12.1408 15.6857 12.3386 15.8708 12.4154C16.0559 12.4922 16.833 12.8235 17.1695 13.4777C17.4406 14.0047 17.3308 14.5554 17.1941 14.8912C17.0779 15.1768 16.6944 15.7246 16.0043 15.9567C15.5132 16.1219 14.9297 16.1111 14.6843 16.1007C14.0178 16.0724 13.6672 15.9138 13.2011 15.7181C13.2023 15.2763 13.204 14.3887 13.2011 14.3736C13.1974 14.3547 13.2808 14.4175 13.6312 14.5099C13.7085 14.5303 14.9432 14.9025 15.4407 14.7258C16.0598 14.506 15.6061 13.9917 15.4407 13.9115C15.0702 13.7319 14.4557 13.4949 14.1392 13.351C13.1731 12.9119 12.539 11.132 14.1392 10.2188C14.7172 9.88893 16.0464 9.80488 17.0388 10.2869Z" stroke="#69CEF4"/>
<path d="M8.57709 15.8898H7.02614L7.021 8.25189L9.95575 8.2632C11.2351 8.2632 12.4076 9.34369 12.4076 10.9681C12.4076 12.5924 10.843 13.5135 9.95575 13.5135H8.57709V15.8898Z" stroke="#69CEF4"/>
<rect x="0.178711" y="0.178833" width="24" height="24" rx="0.5" stroke="#69CEF4"/>
<path d="M8.58154 12.1188V9.61877L9.76107 9.63717C10.2018 9.63717 10.8474 10.1355 10.8474 10.8597C10.8474 11.493 10.3333 12.1205 9.75316 12.1205L8.58154 12.1188ZM8.58154 12.1188V12.1205V12.6188" stroke="#69CEF4"/>
</g>
<defs>
<clipPath id="clip0_438_5">
<rect width="25" height="25" fill="white"/>
</clipPath>
</defs>
</svg>
