<svg width="50" height="51" viewBox="0 0 50 51" fill="none" xmlns="http://www.w3.org/2000/svg">
<path fill-rule="evenodd" clip-rule="evenodd" d="M49 25.8918C49 28.9194 46.6202 31.907 42.2163 34.197C37.8617 36.4614 31.7764 37.8918 25 37.8918C18.2236 37.8918 12.1383 36.4614 7.78368 34.197C3.37984 31.907 1 28.9194 1 25.8918C1 22.8643 3.37984 19.8767 7.78368 17.5867C12.1383 15.3223 18.2236 13.8918 25 13.8918C31.7764 13.8918 37.8617 15.3223 42.2163 17.5867C46.6202 19.8767 49 22.8643 49 25.8918ZM50 25.8918C50 33.0715 38.8071 38.8918 25 38.8918C11.1929 38.8918 0 33.0715 0 25.8918C0 18.7121 11.1929 12.8918 25 12.8918C38.8071 12.8918 50 18.7121 50 25.8918ZM21.6876 29.5568L24.2237 16.517H26.6968L26.1055 19.4613L25.9853 20.0597H26.5957H29.9122C30.525 20.0597 31.387 20.2454 31.9997 20.7058C32.2981 20.9299 32.529 21.2122 32.6569 21.5658C32.7846 21.9187 32.8232 22.3799 32.6764 22.9846L32.6741 22.9941L32.6722 23.0037L31.3514 29.5568H28.9261L30.0276 23.5016C30.0793 23.2365 30.078 22.8257 29.8625 22.4585C29.6218 22.0483 29.1743 21.7933 28.5414 21.7933H28.5406H28.5399H28.5391H28.5382H28.5374H28.5365H28.5355H28.5346H28.5336H28.5325H28.5315H28.5304H28.5293H28.5281H28.5269H28.5257H28.5245H28.5232H28.5219H28.5206H28.5192H28.5178H28.5164H28.5149H28.5134H28.5119H28.5104H28.5088H28.5072H28.5055H28.5039H28.5022H28.5005H28.4987H28.4969H28.4951H28.4933H28.4914H28.4895H28.4876H28.4856H28.4837H28.4816H28.4796H28.4775H28.4754H28.4733H28.4712H28.469H28.4668H28.4646H28.4623H28.46H28.4577H28.4554H28.453H28.4506H28.4482H28.4457H28.4433H28.4408H28.4382H28.4357H28.4331H28.4305H28.4279H28.4252H28.4225H28.4198H28.4171H28.4144H28.4116H28.4088H28.4059H28.4031H28.4002H28.3973H28.3943H28.3914H28.3884H28.3854H28.3824H28.3793H28.3762H28.3731H28.37H28.3668H28.3637H28.3605H28.3573H28.354H28.3507H28.3474H28.3441H28.3408H28.3374H28.334H28.3306H28.3272H28.3238H28.3203H28.3168H28.3133H28.3097H28.3062H28.3026H28.299H28.2953H28.2917H28.288H28.2843H28.2806H28.2769H28.2731H28.2693H28.2655H28.2617H28.2579H28.254H28.2501H28.2462H28.2423H28.2383H28.2344H28.2304H28.2264H28.2224H28.2183H28.2142H28.2102H28.2061H28.2019H28.1978H28.1936H28.1894H28.1852H28.181H28.1768H28.1725H28.1683H28.164H28.1597H28.1553H28.151H28.1466H28.1422H28.1378H28.1334H28.129H28.1245H28.12H28.1155H28.111H28.1065H28.102H28.0974H28.0928H28.0882H28.0836H28.079H28.0743H28.0697H28.065H28.0603H28.0556H28.0509H28.0461H28.0414H28.0366H28.0318H28.027H28.0222H28.0173H28.0125H28.0076H28.0027H27.9978H27.9929H27.988H27.9831H27.9781H27.9731H27.9682H27.9632H27.9581H27.9531H27.9481H27.943H27.938H27.9329H27.9278H27.9227H27.9175H27.9124H27.9072H27.9021H27.8969H27.8917H27.8865H27.8813H27.8761H27.8708H27.8656H27.8603H27.855H27.8497H27.8444H27.8391H27.8338H27.8285H27.8231H27.8178H27.8124H27.807H27.8016H27.7962H27.7908H27.7854H27.7799H27.7745H27.769H27.7635H27.758H27.7526H27.7471H27.7415H27.736H27.7305H27.7249H27.7194H27.7138H27.7083H27.7027H27.6971H27.6915H27.6859H27.6802H27.6746H27.669H27.6633H27.6577H27.652H27.6463H27.6407H27.635H27.6293H27.6236H27.6179H27.6121H27.6064H27.6007H27.5949H27.5892H27.5834H27.5777H27.5719H27.5661H27.5603H27.5545H27.5487H27.5429H27.5371H27.5313H27.5254H27.5196H27.5138H27.5079H27.5021H27.4962H27.4903H27.4845H27.4786H27.4727H27.4668H27.4609H27.455H27.4491H27.4432H27.4373H27.4314H27.4254H27.4195H27.4136H27.4076H27.4017H27.3957H27.3898H27.3838H27.3779H27.3719H27.3659H27.36H27.354H27.348H27.342H27.3361H27.3301H27.3241H27.3181H27.3121H27.3061H27.3001H27.2941H27.2881H27.2821H27.276H27.27H27.264H27.258H27.252H27.2459H27.2399H27.2339H27.2279H27.2218H27.2158H27.2098H27.2037H27.1977H27.1917H27.1856H27.1796H27.1735H27.1675H27.1615H27.1554H27.1494H27.1433H27.1373H27.1313H27.1252H27.1192H27.1131H27.1071H27.1011H27.095H27.089H27.0829H27.0769H27.0709H27.0648H27.0588H27.0528H27.0467H27.0407H27.0347H27.0286H27.0226H27.0166H27.0106H27.0046H26.9985H26.9925H26.9865H26.9805H26.9745H26.9685H26.9625H26.9565H26.9505H26.9445H26.9385H26.9325H26.9265H26.9206H26.9146H26.9086H26.9026H26.8967H26.8907H26.8848H26.8788H26.8728H26.8669H26.861H26.855H26.8491H26.8432H26.8372H26.8313H26.8254H26.8195H26.8136H26.8077H26.8018H26.7959H26.79H26.7842H26.7783H26.7724H26.7666H26.7607H26.7549H26.749H26.7432H26.7374H26.7316H26.7258H26.7199H26.7141H26.7084H26.7026H26.6968H26.691H26.6853H26.6795H26.6737H26.668H26.6623H26.6565H26.6508H26.6451H26.6394H26.6337H26.628H26.6224H26.6167H26.611H26.6054H26.5997H26.5941H26.5885H26.5829H26.5773H26.5717H26.5661H26.5605H26.5549H26.5494H26.5438H26.5383H26.5328H26.5272H26.5217H26.5162H26.5107H26.5053H26.4998H26.4943H26.4889H26.4835H26.478H26.4726H26.4672H26.4618H26.4565H26.4511H26.4457H26.4404H26.435H26.4297H26.4244H26.4191H26.4138H26.4086H26.4033H26.3981H26.3928H26.3876H26.3824H26.3772H26.372H26.3668H26.3617H26.3565H26.3514H26.3463H26.3412H26.3361H26.331H26.3259H26.3209H26.3159H26.3108H26.3058H26.3008H26.2959H26.2909H26.2859H26.281H26.2761H26.2712H26.2663H26.2614H26.2566H26.2517H26.2469H26.2421H26.2373H26.2325H26.2277H26.223H26.2182H26.2135H26.2088H26.2041H26.1995H26.1948H26.1902H26.1855H26.1809H26.1763H26.1718H26.1672H26.1627H26.1582H26.1537H26.1492H26.1447H26.1403H26.1358H26.1314H25.7197L25.6407 22.1974L24.2495 29.3177C24.2338 29.3848 24.2188 29.4469 24.2024 29.5046C24.197 29.5236 24.1917 29.5409 24.1867 29.5568H21.6876ZM31.4599 30.5568C31.5061 30.5568 31.5696 30.5557 31.6409 30.5464L31.1682 32.9566L31.1663 32.9662L31.1648 32.976C31.1327 33.1821 31.1417 33.4219 31.2302 33.6353C31.323 33.8591 31.5456 34.1214 31.9242 34.1214H34.7763C35.1749 34.1214 35.4117 33.8723 35.5277 33.6531C35.6224 33.4745 35.6627 33.2715 35.6826 33.1713L35.6856 33.1562L36.2611 30.5568H39.3089H39.321L39.3331 30.5562C41.3062 30.4604 42.7486 29.4495 43.7104 28.4042C44.6649 27.3669 45.1815 26.2594 45.3117 25.8597C45.9993 23.749 45.6024 22.0354 44.6684 20.8472C43.7513 19.6805 42.3452 19.0597 41.0776 19.0597H34.5995C34.4252 19.0597 34.1802 19.095 33.9861 19.3053C33.8267 19.478 33.7682 19.7045 33.7335 19.8761L33.7329 19.879L33.5104 21.0136C33.2971 20.5493 32.9714 20.185 32.6004 19.9062C31.7649 19.2786 30.6702 19.0597 29.9122 19.0597H27.2061L27.7271 16.4653L27.7298 16.4519L27.7318 16.4383C27.7661 16.201 27.6808 15.9771 27.5538 15.8201C27.4201 15.6548 27.2022 15.517 26.9274 15.517H23.9426C23.8062 15.517 23.6749 15.5607 23.5657 15.6449C23.4661 15.7218 23.407 15.815 23.372 15.8843C23.3072 16.0125 23.2747 16.1628 23.2535 16.2678L23.2528 16.2714L22.1713 21.832C22.1283 21.7308 22.0814 21.6311 22.0305 21.5328C21.4099 20.3336 20.2335 19.4291 18.4708 19.0698L18.4229 19.06L18.374 19.0597L11.321 19.016V19.016H11.3179C11.1732 19.016 11.0321 19.0588 10.9117 19.1475C10.7989 19.2304 10.7308 19.3339 10.6892 19.4162C10.6177 19.5577 10.5843 19.7239 10.5652 19.819L10.5625 19.8325L10.5622 19.8342L7.97567 32.8662L7.97547 32.8672C7.93418 33.0718 7.9194 33.3112 7.99062 33.5284C8.02798 33.6424 8.09664 33.7722 8.22 33.8751C8.34981 33.9834 8.50699 34.0339 8.66473 34.0339H11.738C11.8425 34.0339 11.9611 34.0166 12.079 33.9606C12.1999 33.9032 12.291 33.8188 12.3578 33.727C12.4741 33.5672 12.5244 33.3699 12.5566 33.232L12.5582 33.2248L12.5597 33.2175L13.0977 30.5568H15.8283C17.9907 30.5568 19.7821 29.4881 20.9692 28.0127L20.688 29.4583L20.688 29.4583L20.6871 29.4634C20.6565 29.6297 20.6454 29.8513 20.7175 30.0592C20.7553 30.1684 20.8243 30.2964 20.9486 30.3985C21.0797 30.506 21.2384 30.5568 21.3999 30.5568H24.3848C24.5984 30.5568 24.7617 30.4575 24.8679 30.3515C24.9661 30.2534 25.0279 30.1392 25.0674 30.0512C25.1459 29.8767 25.1941 29.6703 25.2254 29.5362L25.2275 29.5273L25.2292 29.5184L26.5432 22.7933H26.5438H26.5494H26.5549H26.5605H26.5661H26.5717H26.5773H26.5829H26.5885H26.5941H26.5997H26.6054H26.611H26.6167H26.6224H26.628H26.6337H26.6394H26.6451H26.6508H26.6565H26.6623H26.668H26.6737H26.6795H26.6853H26.691H26.6968H26.7026H26.7084H26.7141H26.7199H26.7258H26.7316H26.7374H26.7432H26.749H26.7549H26.7607H26.7666H26.7724H26.7783H26.7842H26.79H26.7959H26.8018H26.8077H26.8136H26.8195H26.8254H26.8313H26.8372H26.8432H26.8491H26.855H26.861H26.8669H26.8728H26.8788H26.8848H26.8907H26.8967H26.9026H26.9086H26.9146H26.9206H26.9265H26.9325H26.9385H26.9445H26.9505H26.9565H26.9625H26.9685H26.9745H26.9805H26.9865H26.9925H26.9985H27.0046H27.0106H27.0166H27.0226H27.0286H27.0347H27.0407H27.0467H27.0528H27.0588H27.0648H27.0709H27.0769H27.0829H27.089H27.095H27.1011H27.1071H27.1131H27.1192H27.1252H27.1313H27.1373H27.1433H27.1494H27.1554H27.1615H27.1675H27.1735H27.1796H27.1856H27.1917H27.1977H27.2037H27.2098H27.2158H27.2218H27.2279H27.2339H27.2399H27.2459H27.252H27.258H27.264H27.27H27.276H27.2821H27.2881H27.2941H27.3001H27.3061H27.3121H27.3181H27.3241H27.3301H27.3361H27.342H27.348H27.354H27.36H27.3659H27.3719H27.3779H27.3838H27.3898H27.3957H27.4017H27.4076H27.4136H27.4195H27.4254H27.4314H27.4373H27.4432H27.4491H27.455H27.4609H27.4668H27.4727H27.4786H27.4845H27.4903H27.4962H27.5021H27.5079H27.5138H27.5196H27.5254H27.5313H27.5371H27.5429H27.5487H27.5545H27.5603H27.5661H27.5719H27.5777H27.5834H27.5892H27.5949H27.6007H27.6064H27.6121H27.6179H27.6236H27.6293H27.635H27.6407H27.6463H27.652H27.6577H27.6633H27.669H27.6746H27.6802H27.6859H27.6915H27.6971H27.7027H27.7083H27.7138H27.7194H27.7249H27.7305H27.736H27.7415H27.7471H27.7526H27.758H27.7635H27.769H27.7745H27.7799H27.7854H27.7908H27.7962H27.8016H27.807H27.8124H27.8178H27.8231H27.8285H27.8338H27.8391H27.8444H27.8497H27.855H27.8603H27.8656H27.8708H27.8761H27.8813H27.8865H27.8917H27.8969H27.9021H27.9072H27.9124H27.9175H27.9227H27.9278H27.9329H27.938H27.943H27.9481H27.9531H27.9581H27.9632H27.9682H27.9731H27.9781H27.9831H27.988H27.9929H27.9978H28.0027H28.0076H28.0125H28.0173H28.0222H28.027H28.0318H28.0366H28.0414H28.0461H28.0509H28.0556H28.0603H28.065H28.0697H28.0743H28.079H28.0836H28.0882H28.0928H28.0974H28.102H28.1065H28.111H28.1155H28.12H28.1245H28.129H28.1334H28.1378H28.1422H28.1466H28.151H28.1553H28.1597H28.164H28.1683H28.1725H28.1768H28.181H28.1852H28.1894H28.1936H28.1978H28.2019H28.2061H28.2102H28.2142H28.2183H28.2224H28.2264H28.2304H28.2344H28.2383H28.2423H28.2462H28.2501H28.254H28.2579H28.2617H28.2655H28.2693H28.2731H28.2769H28.2806H28.2843H28.288H28.2917H28.2953H28.299H28.3026H28.3062H28.3097H28.3133H28.3168H28.3203H28.3238H28.3272H28.3306H28.334H28.3374H28.3408H28.3441H28.3474H28.3507H28.354H28.3573H28.3605H28.3637H28.3668H28.37H28.3731H28.3762H28.3793H28.3824H28.3854H28.3884H28.3914H28.3943H28.3973H28.4002H28.4031H28.4059H28.4088H28.4116H28.4144H28.4171H28.4198H28.4225H28.4252H28.4279H28.4305H28.4331H28.4357H28.4382H28.4408H28.4433H28.4457H28.4482H28.4506H28.453H28.4554H28.4577H28.46H28.4623H28.4646H28.4668H28.469H28.4712H28.4733H28.4754H28.4775H28.4796H28.4816H28.4837H28.4856H28.4876H28.4895H28.4914H28.4933H28.4951H28.4969H28.4987H28.5005H28.5022H28.5039H28.5055H28.5072H28.5088H28.5104H28.5119H28.5134H28.5149H28.5164H28.5178H28.5192H28.5206H28.5219H28.5232H28.5245H28.5257H28.5269H28.5281H28.5293H28.5304H28.5315H28.5325H28.5336H28.5346H28.5355H28.5365H28.5374H28.5382H28.5391H28.5399H28.5406H28.5414C28.7211 22.7933 28.8268 22.8275 28.8862 22.8585C28.9429 22.8882 28.9766 22.9245 29.0001 22.9646C29.0562 23.0602 29.067 23.2046 29.0459 23.3114L29.0458 23.3114L29.0444 23.3191L27.8947 29.6392L27.8866 29.6836V29.7287C27.8866 30.0128 28.0256 30.2421 28.2252 30.3831C28.4081 30.5123 28.6221 30.5568 28.8067 30.5568H31.4599ZM8.96188 33.0339L11.5427 20.0305L11.5429 20.0297L11.5453 20.0174L18.318 20.0594C19.7992 20.3728 20.6846 21.1078 21.1424 21.9925C21.6127 22.9011 21.6666 24.0355 21.3445 25.1722C20.6953 27.4628 18.5872 29.5568 15.8283 29.5568H12.6887H12.2797L12.1986 29.9577L11.5811 33.0118L11.5758 33.0339H8.96188ZM34.7137 20.0743L34.7139 20.0732L34.7167 20.0597H41.0776C42.0432 20.0597 43.1576 20.5433 43.8822 21.4651C44.5898 22.3654 44.9556 23.7244 44.3609 25.55C44.2735 25.8182 43.8284 26.7992 42.9745 27.7271C42.13 28.6448 40.9212 29.4742 39.2964 29.5568H35.8597H35.4583L35.3715 29.9487L34.7083 32.9447L34.7082 32.9447L34.7064 32.9537L34.7056 32.9573C34.6941 33.0142 34.6851 33.0591 34.6732 33.1028L34.6679 33.1214H32.1549L34.7137 20.0743ZM14.2364 21.7933H13.8259L13.7459 22.1959L12.751 27.2039L12.6323 27.8013H13.2414H15.4303C16.0678 27.8013 16.6933 27.7297 17.2495 27.3636C17.8065 26.9969 18.2161 26.3876 18.552 25.4858C18.689 25.1181 18.9274 24.2818 18.8586 23.504C18.8238 23.1103 18.7053 22.675 18.3962 22.3338C18.0738 21.978 17.6072 21.7933 17.0222 21.7933H14.2364ZM13.8505 26.8013L14.6468 22.7933H17.0222C17.3879 22.7933 17.5609 22.9012 17.6552 23.0053C17.7628 23.124 17.8381 23.3161 17.8625 23.5921C17.9122 24.1538 17.7305 24.8264 17.6149 25.1367C17.3155 25.9406 17.0064 26.3264 16.6997 26.5283C16.3922 26.7307 16.0088 26.8013 15.4303 26.8013H13.8505ZM37.319 21.7933H36.9096L36.8288 22.1946L35.8118 27.2463L35.6912 27.845H36.3019H38.5792C40.5181 27.845 41.5607 26.29 41.8319 25.0222C42.063 23.9417 42.0088 23.1064 41.5977 22.5345C41.1728 21.9433 40.4865 21.7933 39.8616 21.7933H37.319ZM36.9126 26.845L37.7283 22.7933H39.8616C40.3643 22.7933 40.6409 22.9167 40.7858 23.1182C40.9445 23.3391 41.0673 23.8159 40.854 24.813C40.6387 25.8196 39.8684 26.845 38.5792 26.845H36.9126Z" fill="#69CEF4"/>
</svg>
