<svg width="50" height="50" viewBox="0 0 50 50" fill="none" xmlns="http://www.w3.org/2000/svg">
<g clip-path="url(#clip0_438_5)">
<path d="M34.3989 20.8951V23.7735C34.0772 23.5785 33.6731 23.359 32.7155 23.0842C31.512 22.7389 30.8357 22.8758 30.4981 22.963C30.0717 23.0731 29.5731 23.59 30.0309 24.1598C30.3868 24.6028 31.6926 24.9984 32.0629 25.1519C32.4332 25.3055 33.9872 25.9682 34.6602 27.2766C35.2024 28.3306 34.9829 29.432 34.7095 30.1036C34.477 30.6748 33.7101 31.7705 32.3299 32.2346C31.3478 32.5649 30.1808 32.5433 29.6898 32.5225C28.3569 32.466 27.6556 32.1488 26.7234 31.7574C26.7259 30.8737 26.7294 29.0986 26.7234 29.0683C26.716 29.0305 26.8828 29.1561 27.5837 29.341C27.7382 29.3818 30.2076 30.1262 31.2027 29.7728C32.4408 29.3331 31.5335 28.3046 31.2027 28.1442C30.4616 27.7849 29.2327 27.311 28.5997 27.0232C26.6676 26.1451 25.3994 22.5851 28.5997 20.7587C29.7556 20.099 32.4142 19.9309 34.3989 20.8951Z" stroke="#69CEF4"/>
<path d="M17.4755 32.1008H14.3736L14.3633 16.825L20.2328 16.8476C22.7915 16.8476 25.1365 19.0086 25.1365 22.2573C25.1365 25.5061 22.0073 27.3482 20.2328 27.3482H17.4755V32.1008Z" stroke="#69CEF4"/>
<rect x="0.178711" y="0.178833" width="49" height="49" rx="0.5" stroke="#69CEF4"/>
<path d="M17.4844 24.5623V24.5587M17.4844 24.5587V19.5587L19.8434 19.5955C20.7249 19.5955 22.0162 20.5921 22.0162 22.0405C22.0162 23.3071 20.9879 24.5623 19.8276 24.5623L17.4844 24.5587Z" stroke="#69CEF4"/>
</g>
<defs>
<clipPath id="clip0_438_5">
<rect width="50" height="50" fill="white"/>
</clipPath>
</defs>
</svg>
