<svg width="0" height="0" class="hidden">
  <symbol fill="none" xmlns="http://www.w3.org/2000/svg" viewBox="0 0 50 51" id="css">
    <g clip-path="url(#clip0_331_768)">
      <path d="M21.1342 39.7981L20.2534 40.6612C20.0801 40.6612 19.9539 39.9729 18.3969 40.0487C17.3836 40.098 17.0709 40.9555 16.9333 41.3017C16.5471 42.2739 16.6102 42.9059 16.6102 43.3596C16.6102 43.8888 16.6102 45.0507 17.1307 45.7983C17.4462 46.2516 18.0928 46.8009 18.5866 46.8009C19.713 46.8009 20.0541 46.3185 20.1967 46.1166L20.1984 46.1143L21.1132 46.9245C20.5454 47.5889 19.6306 47.8806 18.5866 47.8806C16.4682 47.8806 15.7408 46.063 15.5105 45.4783C15.3931 45.1804 15.2074 44.3161 15.238 42.6223C15.2853 40.0001 17.3194 38.8792 18.6543 38.8792C19.804 38.8792 20.5101 39.2778 21.1342 39.7981Z" fill="#69CEF4"></path>
      <path d="M27.7471 39.2273L27.178 40.3271C27.1409 40.3271 27.2026 40.0952 25.9313 40.0487C25.3267 40.0265 24.9364 40.291 24.6575 40.6612C24.4184 40.9785 24.2971 41.7113 25.0775 42.3458C25.2417 42.4793 26.4841 43.093 26.7258 43.2597C27.3608 43.6975 27.8013 43.9458 28.0714 44.8636C28.0947 44.9426 28.1887 45.2834 27.9639 46.2579C27.7391 47.2325 26.8797 47.576 26.1752 47.8049C25.2401 48.1088 24.2909 47.834 23.9393 47.7137C23.5877 47.5933 23.1668 47.316 23.1668 47.2325C23.1668 47.2325 23.3159 46.3248 23.3701 46.2579C23.4243 46.1911 24.1986 46.7058 25.186 46.7731C25.6772 46.8065 26.5952 46.5315 26.7172 46.0073C26.946 45.0249 26.5915 44.6681 26.1752 44.3901C25.7589 44.1121 24.7727 43.5474 24.4406 43.3482C24.0034 43.086 23.2508 42.68 23.1668 41.413C23.0765 40.0487 23.8114 39.3486 24.8336 38.9906C25.9313 38.6062 26.9873 38.9389 27.7471 39.2273Z" fill="#69CEF4"></path>
      <path d="M34.1506 39.3029L33.5814 40.4027C33.5444 40.4027 33.6061 40.1708 32.3347 40.1243C31.7301 40.1022 31.3399 40.3666 31.0609 40.7369C30.8219 41.0541 30.7005 41.787 31.481 42.4214C31.6452 42.5549 32.8876 43.1687 33.1292 43.3353C33.7642 43.7732 34.2048 44.0214 34.4749 44.9392C34.4981 45.0182 34.5922 45.359 34.3674 46.3336C34.1426 47.3081 33.2831 47.6517 32.5786 47.8806C31.6435 48.1844 30.6943 47.9097 30.3428 47.7893C29.9912 47.6689 29.5703 47.3916 29.5703 47.3081C29.5703 47.3081 29.7194 46.4004 29.7736 46.3336C29.8278 46.2667 30.602 46.7814 31.5894 46.8487C32.0806 46.8821 32.9986 46.6071 33.1207 46.083C33.3495 45.1006 32.9949 44.7438 32.5786 44.4657C32.1623 44.1877 31.1762 43.623 30.8441 43.4238C30.4068 43.1616 29.6542 42.7556 29.5703 41.4887C29.4799 40.1243 30.2148 39.4242 31.2371 39.0662C32.3347 38.6818 33.3908 39.0145 34.1506 39.3029Z" fill="#69CEF4"></path>
      <path d="M7 35.9996H43V48.4966C43 49.325 42.3284 49.9966 41.5 49.9966H8.5C7.67157 49.9966 7 49.325 7 48.4966V35.9996Z" stroke="#69CEF4"></path>
      <path d="M43 34.9996H7V3.08447C7 2.25604 7.67157 1.58447 8.5 1.58447H32.8127L43 12.0213V34.9996Z" stroke="#69CEF4"></path>
      <path d="M33.1359 11.7651L33.1359 1.26974L43.3891 11.7651L33.1359 11.7651Z" fill="#69CEF4"></path>
      <path d="M18.5126 11.7199C19.448 11.967 19.5219 12.5808 19.2357 13.1049C18.9495 13.6291 18.0836 13.1049 17.6488 14.1211C17.5936 14.2501 17.6488 17.8507 17.6488 18.4314C17.6488 19.0046 16.8119 20.2962 16.5076 20.4414C16.8554 20.6871 17.6905 21.8372 17.6905 22.9204V25.3132C17.6905 25.8081 17.3293 27.4495 18.5409 27.5843C19.4271 27.6829 19.5844 28.577 19.2142 28.9487C18.8538 29.3106 17.8143 29.3235 17.5439 29.1889C17.3907 29.1127 15.9357 28.3387 15.9357 27.0341C15.9357 26.6909 15.9404 23.5215 15.9404 23.0113C15.9404 22.387 15.6171 21.6373 14.3369 21.366C12.742 21.028 13.4822 19.5793 14.3369 19.5793C15.5314 19.5793 15.6732 18.7556 15.9404 18.2065V13.9759C15.9404 13.8085 16.1271 13.1943 16.2745 12.9898C16.4218 12.7853 17.5773 11.4728 18.5126 11.7199Z" fill="#69CEF4"></path>
      <path d="M30.6175 11.7199C29.6821 11.967 29.6083 12.5808 29.8945 13.1049C30.1806 13.6291 31.0466 13.1049 31.4813 14.1211C31.5386 14.255 31.4813 17.8507 31.4813 18.4314C31.4813 19.0046 32.3182 20.2962 32.6226 20.4414C32.2748 20.6871 31.4396 21.8372 31.4396 22.9204V25.3132C31.4396 25.8081 31.8008 27.4495 30.5893 27.5843C29.7031 27.6829 29.5458 28.577 29.916 28.9487C30.2763 29.3106 31.3159 29.3235 31.5863 29.1889C31.7394 29.1127 33.1944 28.3387 33.1944 27.0341C33.1944 26.6909 33.1897 23.5215 33.1897 23.0113C33.1897 22.387 33.513 21.6373 34.7932 21.366C36.3881 21.028 35.648 19.5793 34.7932 19.5793C33.5988 19.5793 33.457 18.7556 33.1897 18.2065V13.9759C33.1897 13.7738 33.003 13.1943 32.8557 12.9898C32.7083 12.7853 31.5528 11.4728 30.6175 11.7199Z" fill="#69CEF4"></path>
    </g>
    <defs>
      <clipPath id="clip0_331_768">
        <rect width="50" height="50" fill="white" transform="translate(0 0.739014)"></rect>
      </clipPath>
    </defs>
  </symbol>
  <symbol fill="none" xmlns="http://www.w3.org/2000/svg" viewBox="0 0 50 51" id="dart">
    <g clip-path="url(#clip0_331_796)">
      <path d="M29.4276 2.74279L36.7992 9.84853L11.649 9.99887L26.5473 2.32049C27.4988 1.8301 28.657 1.9999 29.4276 2.74279Z" stroke="#69CEF4"></path>
      <path d="M1.82545 30.7976L8.90824 38.1689L8.99981 12.6842L1.39067 27.9503C0.919331 28.8959 1.09338 30.0358 1.82545 30.7976Z" stroke="#69CEF4"></path>
      <path d="M38.3973 10.8608L49.5 21.8327V41.8857H41.6174L10.5017 10.933L38.0419 10.7165C38.1748 10.7155 38.3027 10.7674 38.3973 10.8608Z" stroke="#69CEF4"></path>
      <path d="M9.91799 39.3046L20.887 50.3918H40.9295V42.5257L9.77344 11.7077V38.953C9.77344 39.0847 9.82538 39.211 9.91799 39.3046Z" stroke="#69CEF4"></path>
      <path d="M10.0934 34.5234L10.332 12.3781L40.605 42.1042H17.593C13.4193 42.1042 10.0485 38.6969 10.0934 34.5234Z" stroke="#69CEF4" stroke-opacity="0.5"></path>
    </g>
    <defs>
      <clipPath id="clip0_331_796">
        <rect width="50" height="50" fill="white" transform="translate(0 0.891846)"></rect>
      </clipPath>
    </defs>
  </symbol>
  <symbol fill="none" xmlns="http://www.w3.org/2000/svg" viewBox="0 0 50 58" id="figma">
    <g clip-path="url(#clip0_334_85)" filter="url(#filter0_d_334_85)">
      <path fill-rule="evenodd" clip-rule="evenodd" d="M32.8841 16.6801H25.0202V18.6667V18.8904V24.8788H25.0209C25.0498 22.8592 25.7976 21.0135 27.0202 19.5856C27.3023 19.256 27.6098 18.9487 27.9395 18.6667C29.2248 17.5674 30.8487 16.8519 32.6332 16.6979L32.6385 16.6975C32.72 16.6905 32.8019 16.6847 32.8841 16.6801ZM27.0229 25.1897V24.8788H27.0212C27.0858 21.4385 29.8977 18.6667 33.3602 18.6667C36.8632 18.6667 39.7003 21.5038 39.7003 25C39.7003 28.4963 36.8632 31.3334 33.3602 31.3334C29.9207 31.3334 27.1232 28.5982 27.0229 25.1897ZM25.0267 25.3359C25.1035 27.2715 25.8411 29.0374 27.0202 30.4145C28.5498 32.2011 30.8227 33.3334 33.3602 33.3334C37.9663 33.3334 41.7003 29.6024 41.7003 25C41.7003 21.9197 40.0276 19.2297 37.5403 17.7874C36.6621 17.2781 35.6822 16.9244 34.6385 16.764C34.375 16.7235 34.1074 16.6953 33.8363 16.6801H34.0962L34.0816 16.636L34.0818 16.636C35.3342 16.5287 36.5075 16.1449 37.5403 15.546C40.0276 14.1037 41.7003 11.4137 41.7003 8.33338C41.7003 3.97393 38.35 0.396327 34.0818 0.0308101C33.844 0.0104426 33.6033 4.85628e-05 33.3602 4.85628e-05C33.1171 4.85628e-05 32.8764 0.0104426 32.6385 0.0308101V4.85628e-05H32.6359H30.6385H19.2214H17.2226H17.2214V0.0184945C17.0453 0.00685523 16.8677 0.000650986 16.6888 4.85628e-05L16.6599 0L16.6311 4.85628e-05C16.4522 0.000650986 16.2746 0.00685523 16.0985 0.0184945C11.7431 0.306371 8.2998 3.91903 8.2998 8.33333C8.2998 11.4141 9.97695 14.1044 12.4708 15.5466C13.3067 16.03 14.2344 16.3731 15.2214 16.5438C15.509 16.5935 15.8016 16.6285 16.0985 16.6482C16.2841 16.6604 16.4713 16.6667 16.6599 16.6667C16.8486 16.6667 17.0358 16.6604 17.2214 16.6482V16.6667L17.2214 16.6852C17.0358 16.6729 16.8486 16.6667 16.6599 16.6667C16.4713 16.6667 16.2841 16.6729 16.0985 16.6852C15.8016 16.7048 15.509 16.7399 15.2214 16.7896C14.2344 16.9603 13.3067 17.3034 12.4708 17.7868C9.97695 19.229 8.29981 21.9193 8.29981 25C8.29981 28.0808 9.97691 30.7711 12.4707 32.2132C13.538 32.8304 14.7548 33.2191 16.0539 33.3118L16.0556 33.3548C14.7559 33.4473 13.5385 33.836 12.4707 34.4535C9.97691 35.8957 8.29981 38.5859 8.29981 41.6667C8.29981 46.269 12.0428 50 16.6599 50C21.1527 50 24.8177 46.4674 25.012 42.0368C25.0174 41.9141 25.0201 41.7907 25.0201 41.6667C25.0201 41.5427 25.0174 41.4193 25.012 41.2966H25.0202V41.2962V39.2966V31.1097V25.3359H25.0267ZM16.7696 1.89511C13.1201 1.89511 10.1616 4.85363 10.1616 8.50316C10.1616 12.1527 13.1201 15.1112 16.7696 15.1112H33.2304C36.8799 15.1112 39.8385 12.1527 39.8385 8.50316C39.8385 4.85363 36.8799 1.89511 33.2304 1.89511H16.7696ZM16.7696 18.392C13.1201 18.392 10.1616 21.3505 10.1616 25C10.1616 28.6496 13.1201 31.6081 16.7696 31.6081H23.1171V18.392H16.7696ZM10.1616 41.5623C10.1616 37.9128 13.1201 34.8885 16.7696 34.8885H23.1171V41.6268C23.1171 45.2044 20.2169 48.1046 16.6393 48.1046C13.0618 48.1046 10.1616 45.1399 10.1616 41.5623Z" fill="#69CEF4"></path>
    </g>
    <defs>
      <filter id="filter0_d_334_85" x="-4" y="0" width="58" height="58" filterUnits="userSpaceOnUse" color-interpolation-filters="sRGB">
        <feFlood flood-opacity="0" result="BackgroundImageFix"></feFlood>
        <feColorMatrix in="SourceAlpha" type="matrix" values="0 0 0 0 0 0 0 0 0 0 0 0 0 0 0 0 0 0 127 0" result="hardAlpha"></feColorMatrix>
        <feOffset dy="4"></feOffset>
        <feGaussianBlur stdDeviation="2"></feGaussianBlur>
        <feComposite in2="hardAlpha" operator="out"></feComposite>
        <feColorMatrix type="matrix" values="0 0 0 0 0 0 0 0 0 0 0 0 0 0 0 0 0 0 0.25 0"></feColorMatrix>
        <feBlend mode="normal" in2="BackgroundImageFix" result="effect1_dropShadow_334_85"></feBlend>
        <feBlend mode="normal" in="SourceGraphic" in2="effect1_dropShadow_334_85" result="shape"></feBlend>
      </filter>
      <clipPath id="clip0_334_85">
        <rect width="50" height="50" fill="white"></rect>
      </clipPath>
    </defs>
  </symbol>
  <symbol fill="none" xmlns="http://www.w3.org/2000/svg" viewBox="0 0 50 50" id="git">
    <rect x="0.707107" y="25" width="34.3553" height="34.3553" rx="0.5" transform="rotate(-45 0.707107 25)" stroke="#69CEF4"></rect>
    <path fill-rule="evenodd" clip-rule="evenodd" d="M22.991 11.8039L18.1904 6.9646L16.8065 8.3374L21.632 13.2019C21.2882 13.7933 21.0913 14.4807 21.0913 15.2141C21.0913 17.0924 22.3828 18.669 24.1262 19.1043L24.0681 31.112C22.3542 31.5676 21.0913 33.13 21.0913 34.9873C21.0913 37.2017 22.8864 38.9968 25.1008 38.9968C27.3152 38.9968 29.1103 37.2017 29.1103 34.9873C29.1103 33.0883 27.7902 31.4977 26.0176 31.0831L26.0755 19.1043C26.4344 19.0147 26.7742 18.8767 27.0875 18.6976L31.4911 23.1369C31.1644 23.7173 30.978 24.3873 30.978 25.1008C30.978 27.3152 32.7732 29.1103 34.9875 29.1103C37.2019 29.1103 38.9971 27.3152 38.9971 25.1008C38.9971 22.8864 37.2019 21.0913 34.9875 21.0913C34.1938 21.0913 33.4539 21.322 32.8312 21.7199L28.4953 17.349C28.8849 16.7308 29.1103 15.9988 29.1103 15.2141C29.1103 12.9997 27.3152 11.2046 25.1008 11.2046C24.3267 11.2046 23.6038 11.424 22.991 11.8039Z" fill="#69CEF4"></path>
  </symbol>
  <symbol fill="none" xmlns="http://www.w3.org/2000/svg" viewBox="0 0 50 50" id="html">
    <rect x="9.00488" y="38.8188" width="1.44216" height="8.55472" fill="#69CEF4"></rect>
    <rect x="14.3342" y="38.8188" width="1.44216" height="8.55472" fill="#69CEF4"></rect>
    <rect x="10.3923" y="43.6133" width="1.03409" height="3.9419" transform="rotate(-90 10.3923 43.6133)" fill="#69CEF4"></rect>
    <rect x="17.4626" y="39.853" width="1.03409" height="6.73007" transform="rotate(-90 17.4626 39.853)" fill="#69CEF4"></rect>
    <rect x="36.3286" y="47.3737" width="1.03409" height="5.49439" transform="rotate(-90 36.3286 47.3737)" fill="#69CEF4"></rect>
    <rect width="1.05389" height="7.65606" transform="matrix(0.920417 -0.390939 0.405999 0.913874 26.4131 39.231)" fill="#69CEF4"></rect>
    <rect width="1.05389" height="7.65606" transform="matrix(-0.920417 -0.390939 -0.405999 0.913874 33.5996 39.231)" fill="#69CEF4"></rect>
    <rect x="29.5215" y="45.2209" width="0.970014" height="1.0067" fill="#69CEF4"></rect>
    <rect x="20.1375" y="38.8188" width="1.44216" height="8.55472" fill="#69CEF4"></rect>
    <rect x="25.9409" y="38.8188" width="1.44216" height="8.55472" fill="#69CEF4"></rect>
    <rect x="32.6562" y="38.8188" width="1.44216" height="8.55472" fill="#69CEF4"></rect>
    <rect x="36.3286" y="38.8188" width="1.44216" height="8.55472" fill="#69CEF4"></rect>
    <path d="M6.5 35.8828H43.5V48C43.5 48.8284 42.8284 49.5 42 49.5H8C7.17157 49.5 6.5 48.8284 6.5 48V35.8828Z" stroke="#69CEF4"></path>
    <path d="M43.5 34.8829H6.5V3.83924C6.5 3.01081 7.17157 2.33923 8 2.33923H33.0372L43.5 12.5119V34.8829Z" stroke="#69CEF4"></path>
    <path d="M33.3558 12.2494L33.3558 2.01978L43.886 12.2494L33.3558 12.2494Z" fill="#69CEF4"></path>
    <path fill-rule="evenodd" clip-rule="evenodd" d="M16.0687 21.6468L20.7356 26.2714C21.0578 26.5908 21.0544 27.105 20.7279 27.42C20.4014 27.735 19.8755 27.7315 19.5532 27.4121L14.3279 22.2341C14.1637 22.0714 14.0841 21.8581 14.0887 21.6463C14.0847 21.4355 14.1641 21.2234 14.3273 21.0613L19.5466 15.8776C19.8685 15.5578 20.3944 15.5537 20.7212 15.8684C21.0481 16.183 21.0521 16.6972 20.7302 17.0169L16.0687 21.6468Z" fill="#69CEF4"></path>
    <path fill-rule="evenodd" clip-rule="evenodd" d="M34.7995 21.6468L30.1326 26.2714C29.8104 26.5908 29.8138 27.105 30.1403 27.42C30.4668 27.735 30.9927 27.7315 31.3149 27.4121L36.5403 22.2341C36.7045 22.0714 36.7841 21.8581 36.7795 21.6463C36.7835 21.4355 36.7041 21.2234 36.5408 21.0613L31.3216 15.8776C30.9997 15.5578 30.4738 15.5537 30.1469 15.8684C29.8201 16.183 29.8161 16.6972 30.138 17.0169L34.7995 21.6468Z" fill="#69CEF4"></path>
  </symbol>
  <symbol fill="none" xmlns="http://www.w3.org/2000/svg" viewBox="0 0 50 51" id="js">
    <g clip-path="url(#clip0_331_776)">
      <path d="M6.5 36.4722H43.5V48.892C43.5 49.7204 42.8284 50.392 42 50.392H8C7.17157 50.392 6.5 49.7204 6.5 48.892V36.4722Z" stroke="#69CEF4"></path>
      <path d="M43.5 35.4722H6.5V3.73413C6.5 2.9057 7.17157 2.23413 8 2.23413H33.0342L43.5 12.6204V35.4722Z" stroke="#69CEF4"></path>
      <path d="M33.3558 12.3599L33.3558 1.9185L43.886 12.3599L33.3558 12.3599Z" fill="#69CEF4"></path>
      <path fill-rule="evenodd" clip-rule="evenodd" d="M17.11 23.0867L22.0438 26.8929C22.3857 27.1567 22.383 27.5808 22.0377 27.8401C21.6924 28.0995 21.1352 28.0959 20.7933 27.8321L15.2709 23.5718C15.0965 23.4373 15.0117 23.2609 15.0164 23.0861C15.0126 22.9122 15.0972 22.737 15.2705 22.603L20.7858 18.3385C21.1276 18.0743 21.6848 18.0701 22.0305 18.3291C22.3762 18.5882 22.3794 19.0124 22.0377 19.2766L17.11 23.0867Z" fill="#69CEF4"></path>
      <path fill-rule="evenodd" clip-rule="evenodd" d="M27.0243 17.3369C27.172 16.9259 27.6442 16.6256 28.079 16.6661C28.5137 16.7066 28.7464 17.0725 28.5987 17.4834L24.7165 28.2833C24.5687 28.6942 24.0965 28.9945 23.6618 28.9541C23.227 28.9136 22.9943 28.5477 23.142 28.1368L27.0243 17.3369ZM29.4398 26.8928L34.3735 23.0864L29.4457 19.276C29.104 19.0118 29.1072 18.5875 29.4529 18.3285C29.7986 18.0694 30.3558 18.0736 30.6976 18.3379L36.2129 22.6026C36.3853 22.7359 36.47 22.91 36.467 23.0831C36.4727 23.2588 36.388 23.4363 36.2126 23.5715L30.6902 27.832C30.3483 28.0959 29.7912 28.0994 29.4459 27.8401C29.1006 27.5807 29.0978 27.1566 29.4398 26.8928Z" fill="#69CEF4"></path>
      <path d="M29.5749 40.6301L29.0982 41.5008C29.0672 41.5008 29.1188 41.3172 28.054 41.2803C27.5477 41.2628 27.2208 41.4722 26.9872 41.7653C26.787 42.0164 26.6853 42.5966 27.339 43.0989C27.4765 43.2045 28.5171 43.6904 28.7195 43.8223C29.2513 44.169 29.6203 44.3655 29.8465 45.0921C29.866 45.1546 29.9447 45.4244 29.7565 46.196C29.5682 46.9675 28.8483 47.2394 28.2583 47.4207C27.4751 47.6612 26.6801 47.4437 26.3857 47.3484C26.0912 47.2531 25.7387 47.0336 25.7387 46.9675C25.7387 46.9675 25.8636 46.2489 25.909 46.196C25.9544 46.143 26.6028 46.5505 27.4298 46.6037C27.8412 46.6302 28.6101 46.4125 28.7123 45.9976C28.9039 45.2198 28.607 44.9374 28.2583 44.7173C27.9096 44.4972 27.0837 44.0501 26.8056 43.8924C26.4393 43.6849 25.809 43.3634 25.7387 42.3604C25.663 41.2803 26.2786 40.7261 27.1347 40.4427C28.054 40.1384 28.9385 40.4018 29.5749 40.6301Z" fill="#69CEF4"></path>
      <path fill-rule="evenodd" clip-rule="evenodd" d="M24.1339 40.3052H22.9618V47.1615C22.9204 46.8905 22.8342 46.6343 22.7108 46.4007C22.5684 46.4647 22.38 46.503 22.1332 46.503C21.1606 46.503 21.0082 46.3737 21.0082 45.4648V45.1478C20.8653 45.1215 20.718 45.1078 20.5675 45.1078H19.865C19.865 46.4455 20.9494 47.5299 22.2871 47.5299H22.9618V47.53C22.9662 47.53 22.9707 47.53 22.9751 47.5299H22.9896C22.9896 47.5298 22.9896 47.5298 22.9896 47.5297C23.6241 47.5149 24.1339 46.9959 24.1339 46.3579V40.3052Z" fill="#69CEF4"></path>
    </g>
    <defs>
      <clipPath id="clip0_331_776">
        <rect width="50" height="50" fill="white" transform="translate(0 0.891846)"></rect>
      </clipPath>
    </defs>
  </symbol>
  <symbol fill="none" xmlns="http://www.w3.org/2000/svg" viewBox="0 0 50 51" id="php">
    <path fill-rule="evenodd" clip-rule="evenodd" d="M49 25.8918C49 28.9194 46.6202 31.907 42.2163 34.197C37.8617 36.4614 31.7764 37.8918 25 37.8918C18.2236 37.8918 12.1383 36.4614 7.78368 34.197C3.37984 31.907 1 28.9194 1 25.8918C1 22.8643 3.37984 19.8767 7.78368 17.5867C12.1383 15.3223 18.2236 13.8918 25 13.8918C31.7764 13.8918 37.8617 15.3223 42.2163 17.5867C46.6202 19.8767 49 22.8643 49 25.8918ZM50 25.8918C50 33.0715 38.8071 38.8918 25 38.8918C11.1929 38.8918 0 33.0715 0 25.8918C0 18.7121 11.1929 12.8918 25 12.8918C38.8071 12.8918 50 18.7121 50 25.8918ZM21.6876 29.5568L24.2237 16.517H26.6968L26.1055 19.4613L25.9853 20.0597H26.5957H29.9122C30.525 20.0597 31.387 20.2454 31.9997 20.7058C32.2981 20.9299 32.529 21.2122 32.6569 21.5658C32.7846 21.9187 32.8232 22.3799 32.6764 22.9846L32.6741 22.9941L32.6722 23.0037L31.3514 29.5568H28.9261L30.0276 23.5016C30.0793 23.2365 30.078 22.8257 29.8625 22.4585C29.6218 22.0483 29.1743 21.7933 28.5414 21.7933H28.5406H28.5399H28.5391H28.5382H28.5374H28.5365H28.5355H28.5346H28.5336H28.5325H28.5315H28.5304H28.5293H28.5281H28.5269H28.5257H28.5245H28.5232H28.5219H28.5206H28.5192H28.5178H28.5164H28.5149H28.5134H28.5119H28.5104H28.5088H28.5072H28.5055H28.5039H28.5022H28.5005H28.4987H28.4969H28.4951H28.4933H28.4914H28.4895H28.4876H28.4856H28.4837H28.4816H28.4796H28.4775H28.4754H28.4733H28.4712H28.469H28.4668H28.4646H28.4623H28.46H28.4577H28.4554H28.453H28.4506H28.4482H28.4457H28.4433H28.4408H28.4382H28.4357H28.4331H28.4305H28.4279H28.4252H28.4225H28.4198H28.4171H28.4144H28.4116H28.4088H28.4059H28.4031H28.4002H28.3973H28.3943H28.3914H28.3884H28.3854H28.3824H28.3793H28.3762H28.3731H28.37H28.3668H28.3637H28.3605H28.3573H28.354H28.3507H28.3474H28.3441H28.3408H28.3374H28.334H28.3306H28.3272H28.3238H28.3203H28.3168H28.3133H28.3097H28.3062H28.3026H28.299H28.2953H28.2917H28.288H28.2843H28.2806H28.2769H28.2731H28.2693H28.2655H28.2617H28.2579H28.254H28.2501H28.2462H28.2423H28.2383H28.2344H28.2304H28.2264H28.2224H28.2183H28.2142H28.2102H28.2061H28.2019H28.1978H28.1936H28.1894H28.1852H28.181H28.1768H28.1725H28.1683H28.164H28.1597H28.1553H28.151H28.1466H28.1422H28.1378H28.1334H28.129H28.1245H28.12H28.1155H28.111H28.1065H28.102H28.0974H28.0928H28.0882H28.0836H28.079H28.0743H28.0697H28.065H28.0603H28.0556H28.0509H28.0461H28.0414H28.0366H28.0318H28.027H28.0222H28.0173H28.0125H28.0076H28.0027H27.9978H27.9929H27.988H27.9831H27.9781H27.9731H27.9682H27.9632H27.9581H27.9531H27.9481H27.943H27.938H27.9329H27.9278H27.9227H27.9175H27.9124H27.9072H27.9021H27.8969H27.8917H27.8865H27.8813H27.8761H27.8708H27.8656H27.8603H27.855H27.8497H27.8444H27.8391H27.8338H27.8285H27.8231H27.8178H27.8124H27.807H27.8016H27.7962H27.7908H27.7854H27.7799H27.7745H27.769H27.7635H27.758H27.7526H27.7471H27.7415H27.736H27.7305H27.7249H27.7194H27.7138H27.7083H27.7027H27.6971H27.6915H27.6859H27.6802H27.6746H27.669H27.6633H27.6577H27.652H27.6463H27.6407H27.635H27.6293H27.6236H27.6179H27.6121H27.6064H27.6007H27.5949H27.5892H27.5834H27.5777H27.5719H27.5661H27.5603H27.5545H27.5487H27.5429H27.5371H27.5313H27.5254H27.5196H27.5138H27.5079H27.5021H27.4962H27.4903H27.4845H27.4786H27.4727H27.4668H27.4609H27.455H27.4491H27.4432H27.4373H27.4314H27.4254H27.4195H27.4136H27.4076H27.4017H27.3957H27.3898H27.3838H27.3779H27.3719H27.3659H27.36H27.354H27.348H27.342H27.3361H27.3301H27.3241H27.3181H27.3121H27.3061H27.3001H27.2941H27.2881H27.2821H27.276H27.27H27.264H27.258H27.252H27.2459H27.2399H27.2339H27.2279H27.2218H27.2158H27.2098H27.2037H27.1977H27.1917H27.1856H27.1796H27.1735H27.1675H27.1615H27.1554H27.1494H27.1433H27.1373H27.1313H27.1252H27.1192H27.1131H27.1071H27.1011H27.095H27.089H27.0829H27.0769H27.0709H27.0648H27.0588H27.0528H27.0467H27.0407H27.0347H27.0286H27.0226H27.0166H27.0106H27.0046H26.9985H26.9925H26.9865H26.9805H26.9745H26.9685H26.9625H26.9565H26.9505H26.9445H26.9385H26.9325H26.9265H26.9206H26.9146H26.9086H26.9026H26.8967H26.8907H26.8848H26.8788H26.8728H26.8669H26.861H26.855H26.8491H26.8432H26.8372H26.8313H26.8254H26.8195H26.8136H26.8077H26.8018H26.7959H26.79H26.7842H26.7783H26.7724H26.7666H26.7607H26.7549H26.749H26.7432H26.7374H26.7316H26.7258H26.7199H26.7141H26.7084H26.7026H26.6968H26.691H26.6853H26.6795H26.6737H26.668H26.6623H26.6565H26.6508H26.6451H26.6394H26.6337H26.628H26.6224H26.6167H26.611H26.6054H26.5997H26.5941H26.5885H26.5829H26.5773H26.5717H26.5661H26.5605H26.5549H26.5494H26.5438H26.5383H26.5328H26.5272H26.5217H26.5162H26.5107H26.5053H26.4998H26.4943H26.4889H26.4835H26.478H26.4726H26.4672H26.4618H26.4565H26.4511H26.4457H26.4404H26.435H26.4297H26.4244H26.4191H26.4138H26.4086H26.4033H26.3981H26.3928H26.3876H26.3824H26.3772H26.372H26.3668H26.3617H26.3565H26.3514H26.3463H26.3412H26.3361H26.331H26.3259H26.3209H26.3159H26.3108H26.3058H26.3008H26.2959H26.2909H26.2859H26.281H26.2761H26.2712H26.2663H26.2614H26.2566H26.2517H26.2469H26.2421H26.2373H26.2325H26.2277H26.223H26.2182H26.2135H26.2088H26.2041H26.1995H26.1948H26.1902H26.1855H26.1809H26.1763H26.1718H26.1672H26.1627H26.1582H26.1537H26.1492H26.1447H26.1403H26.1358H26.1314H25.7197L25.6407 22.1974L24.2495 29.3177C24.2338 29.3848 24.2188 29.4469 24.2024 29.5046C24.197 29.5236 24.1917 29.5409 24.1867 29.5568H21.6876ZM31.4599 30.5568C31.5061 30.5568 31.5696 30.5557 31.6409 30.5464L31.1682 32.9566L31.1663 32.9662L31.1648 32.976C31.1327 33.1821 31.1417 33.4219 31.2302 33.6353C31.323 33.8591 31.5456 34.1214 31.9242 34.1214H34.7763C35.1749 34.1214 35.4117 33.8723 35.5277 33.6531C35.6224 33.4745 35.6627 33.2715 35.6826 33.1713L35.6856 33.1562L36.2611 30.5568H39.3089H39.321L39.3331 30.5562C41.3062 30.4604 42.7486 29.4495 43.7104 28.4042C44.6649 27.3669 45.1815 26.2594 45.3117 25.8597C45.9993 23.749 45.6024 22.0354 44.6684 20.8472C43.7513 19.6805 42.3452 19.0597 41.0776 19.0597H34.5995C34.4252 19.0597 34.1802 19.095 33.9861 19.3053C33.8267 19.478 33.7682 19.7045 33.7335 19.8761L33.7329 19.879L33.5104 21.0136C33.2971 20.5493 32.9714 20.185 32.6004 19.9062C31.7649 19.2786 30.6702 19.0597 29.9122 19.0597H27.2061L27.7271 16.4653L27.7298 16.4519L27.7318 16.4383C27.7661 16.201 27.6808 15.9771 27.5538 15.8201C27.4201 15.6548 27.2022 15.517 26.9274 15.517H23.9426C23.8062 15.517 23.6749 15.5607 23.5657 15.6449C23.4661 15.7218 23.407 15.815 23.372 15.8843C23.3072 16.0125 23.2747 16.1628 23.2535 16.2678L23.2528 16.2714L22.1713 21.832C22.1283 21.7308 22.0814 21.6311 22.0305 21.5328C21.4099 20.3336 20.2335 19.4291 18.4708 19.0698L18.4229 19.06L18.374 19.0597L11.321 19.016V19.016H11.3179C11.1732 19.016 11.0321 19.0588 10.9117 19.1475C10.7989 19.2304 10.7308 19.3339 10.6892 19.4162C10.6177 19.5577 10.5843 19.7239 10.5652 19.819L10.5625 19.8325L10.5622 19.8342L7.97567 32.8662L7.97547 32.8672C7.93418 33.0718 7.9194 33.3112 7.99062 33.5284C8.02798 33.6424 8.09664 33.7722 8.22 33.8751C8.34981 33.9834 8.50699 34.0339 8.66473 34.0339H11.738C11.8425 34.0339 11.9611 34.0166 12.079 33.9606C12.1999 33.9032 12.291 33.8188 12.3578 33.727C12.4741 33.5672 12.5244 33.3699 12.5566 33.232L12.5582 33.2248L12.5597 33.2175L13.0977 30.5568H15.8283C17.9907 30.5568 19.7821 29.4881 20.9692 28.0127L20.688 29.4583L20.688 29.4583L20.6871 29.4634C20.6565 29.6297 20.6454 29.8513 20.7175 30.0592C20.7553 30.1684 20.8243 30.2964 20.9486 30.3985C21.0797 30.506 21.2384 30.5568 21.3999 30.5568H24.3848C24.5984 30.5568 24.7617 30.4575 24.8679 30.3515C24.9661 30.2534 25.0279 30.1392 25.0674 30.0512C25.1459 29.8767 25.1941 29.6703 25.2254 29.5362L25.2275 29.5273L25.2292 29.5184L26.5432 22.7933H26.5438H26.5494H26.5549H26.5605H26.5661H26.5717H26.5773H26.5829H26.5885H26.5941H26.5997H26.6054H26.611H26.6167H26.6224H26.628H26.6337H26.6394H26.6451H26.6508H26.6565H26.6623H26.668H26.6737H26.6795H26.6853H26.691H26.6968H26.7026H26.7084H26.7141H26.7199H26.7258H26.7316H26.7374H26.7432H26.749H26.7549H26.7607H26.7666H26.7724H26.7783H26.7842H26.79H26.7959H26.8018H26.8077H26.8136H26.8195H26.8254H26.8313H26.8372H26.8432H26.8491H26.855H26.861H26.8669H26.8728H26.8788H26.8848H26.8907H26.8967H26.9026H26.9086H26.9146H26.9206H26.9265H26.9325H26.9385H26.9445H26.9505H26.9565H26.9625H26.9685H26.9745H26.9805H26.9865H26.9925H26.9985H27.0046H27.0106H27.0166H27.0226H27.0286H27.0347H27.0407H27.0467H27.0528H27.0588H27.0648H27.0709H27.0769H27.0829H27.089H27.095H27.1011H27.1071H27.1131H27.1192H27.1252H27.1313H27.1373H27.1433H27.1494H27.1554H27.1615H27.1675H27.1735H27.1796H27.1856H27.1917H27.1977H27.2037H27.2098H27.2158H27.2218H27.2279H27.2339H27.2399H27.2459H27.252H27.258H27.264H27.27H27.276H27.2821H27.2881H27.2941H27.3001H27.3061H27.3121H27.3181H27.3241H27.3301H27.3361H27.342H27.348H27.354H27.36H27.3659H27.3719H27.3779H27.3838H27.3898H27.3957H27.4017H27.4076H27.4136H27.4195H27.4254H27.4314H27.4373H27.4432H27.4491H27.455H27.4609H27.4668H27.4727H27.4786H27.4845H27.4903H27.4962H27.5021H27.5079H27.5138H27.5196H27.5254H27.5313H27.5371H27.5429H27.5487H27.5545H27.5603H27.5661H27.5719H27.5777H27.5834H27.5892H27.5949H27.6007H27.6064H27.6121H27.6179H27.6236H27.6293H27.635H27.6407H27.6463H27.652H27.6577H27.6633H27.669H27.6746H27.6802H27.6859H27.6915H27.6971H27.7027H27.7083H27.7138H27.7194H27.7249H27.7305H27.736H27.7415H27.7471H27.7526H27.758H27.7635H27.769H27.7745H27.7799H27.7854H27.7908H27.7962H27.8016H27.807H27.8124H27.8178H27.8231H27.8285H27.8338H27.8391H27.8444H27.8497H27.855H27.8603H27.8656H27.8708H27.8761H27.8813H27.8865H27.8917H27.8969H27.9021H27.9072H27.9124H27.9175H27.9227H27.9278H27.9329H27.938H27.943H27.9481H27.9531H27.9581H27.9632H27.9682H27.9731H27.9781H27.9831H27.988H27.9929H27.9978H28.0027H28.0076H28.0125H28.0173H28.0222H28.027H28.0318H28.0366H28.0414H28.0461H28.0509H28.0556H28.0603H28.065H28.0697H28.0743H28.079H28.0836H28.0882H28.0928H28.0974H28.102H28.1065H28.111H28.1155H28.12H28.1245H28.129H28.1334H28.1378H28.1422H28.1466H28.151H28.1553H28.1597H28.164H28.1683H28.1725H28.1768H28.181H28.1852H28.1894H28.1936H28.1978H28.2019H28.2061H28.2102H28.2142H28.2183H28.2224H28.2264H28.2304H28.2344H28.2383H28.2423H28.2462H28.2501H28.254H28.2579H28.2617H28.2655H28.2693H28.2731H28.2769H28.2806H28.2843H28.288H28.2917H28.2953H28.299H28.3026H28.3062H28.3097H28.3133H28.3168H28.3203H28.3238H28.3272H28.3306H28.334H28.3374H28.3408H28.3441H28.3474H28.3507H28.354H28.3573H28.3605H28.3637H28.3668H28.37H28.3731H28.3762H28.3793H28.3824H28.3854H28.3884H28.3914H28.3943H28.3973H28.4002H28.4031H28.4059H28.4088H28.4116H28.4144H28.4171H28.4198H28.4225H28.4252H28.4279H28.4305H28.4331H28.4357H28.4382H28.4408H28.4433H28.4457H28.4482H28.4506H28.453H28.4554H28.4577H28.46H28.4623H28.4646H28.4668H28.469H28.4712H28.4733H28.4754H28.4775H28.4796H28.4816H28.4837H28.4856H28.4876H28.4895H28.4914H28.4933H28.4951H28.4969H28.4987H28.5005H28.5022H28.5039H28.5055H28.5072H28.5088H28.5104H28.5119H28.5134H28.5149H28.5164H28.5178H28.5192H28.5206H28.5219H28.5232H28.5245H28.5257H28.5269H28.5281H28.5293H28.5304H28.5315H28.5325H28.5336H28.5346H28.5355H28.5365H28.5374H28.5382H28.5391H28.5399H28.5406H28.5414C28.7211 22.7933 28.8268 22.8275 28.8862 22.8585C28.9429 22.8882 28.9766 22.9245 29.0001 22.9646C29.0562 23.0602 29.067 23.2046 29.0459 23.3114L29.0458 23.3114L29.0444 23.3191L27.8947 29.6392L27.8866 29.6836V29.7287C27.8866 30.0128 28.0256 30.2421 28.2252 30.3831C28.4081 30.5123 28.6221 30.5568 28.8067 30.5568H31.4599ZM8.96188 33.0339L11.5427 20.0305L11.5429 20.0297L11.5453 20.0174L18.318 20.0594C19.7992 20.3728 20.6846 21.1078 21.1424 21.9925C21.6127 22.9011 21.6666 24.0355 21.3445 25.1722C20.6953 27.4628 18.5872 29.5568 15.8283 29.5568H12.6887H12.2797L12.1986 29.9577L11.5811 33.0118L11.5758 33.0339H8.96188ZM34.7137 20.0743L34.7139 20.0732L34.7167 20.0597H41.0776C42.0432 20.0597 43.1576 20.5433 43.8822 21.4651C44.5898 22.3654 44.9556 23.7244 44.3609 25.55C44.2735 25.8182 43.8284 26.7992 42.9745 27.7271C42.13 28.6448 40.9212 29.4742 39.2964 29.5568H35.8597H35.4583L35.3715 29.9487L34.7083 32.9447L34.7082 32.9447L34.7064 32.9537L34.7056 32.9573C34.6941 33.0142 34.6851 33.0591 34.6732 33.1028L34.6679 33.1214H32.1549L34.7137 20.0743ZM14.2364 21.7933H13.8259L13.7459 22.1959L12.751 27.2039L12.6323 27.8013H13.2414H15.4303C16.0678 27.8013 16.6933 27.7297 17.2495 27.3636C17.8065 26.9969 18.2161 26.3876 18.552 25.4858C18.689 25.1181 18.9274 24.2818 18.8586 23.504C18.8238 23.1103 18.7053 22.675 18.3962 22.3338C18.0738 21.978 17.6072 21.7933 17.0222 21.7933H14.2364ZM13.8505 26.8013L14.6468 22.7933H17.0222C17.3879 22.7933 17.5609 22.9012 17.6552 23.0053C17.7628 23.124 17.8381 23.3161 17.8625 23.5921C17.9122 24.1538 17.7305 24.8264 17.6149 25.1367C17.3155 25.9406 17.0064 26.3264 16.6997 26.5283C16.3922 26.7307 16.0088 26.8013 15.4303 26.8013H13.8505ZM37.319 21.7933H36.9096L36.8288 22.1946L35.8118 27.2463L35.6912 27.845H36.3019H38.5792C40.5181 27.845 41.5607 26.29 41.8319 25.0222C42.063 23.9417 42.0088 23.1064 41.5977 22.5345C41.1728 21.9433 40.4865 21.7933 39.8616 21.7933H37.319ZM36.9126 26.845L37.7283 22.7933H39.8616C40.3643 22.7933 40.6409 22.9167 40.7858 23.1182C40.9445 23.3391 41.0673 23.8159 40.854 24.813C40.6387 25.8196 39.8684 26.845 38.5792 26.845H36.9126Z" fill="#69CEF4"></path>
  </symbol>
  <symbol fill="none" xmlns="http://www.w3.org/2000/svg" viewBox="0 0 50 50" id="ps">
    <g clip-path="url(#clip0_438_5)">
      <path d="M34.3989 20.8951V23.7735C34.0772 23.5785 33.6731 23.359 32.7155 23.0842C31.512 22.7389 30.8357 22.8758 30.4981 22.963C30.0717 23.0731 29.5731 23.59 30.0309 24.1598C30.3868 24.6028 31.6926 24.9984 32.0629 25.1519C32.4332 25.3055 33.9872 25.9682 34.6602 27.2766C35.2024 28.3306 34.9829 29.432 34.7095 30.1036C34.477 30.6748 33.7101 31.7705 32.3299 32.2346C31.3478 32.5649 30.1808 32.5433 29.6898 32.5225C28.3569 32.466 27.6556 32.1488 26.7234 31.7574C26.7259 30.8737 26.7294 29.0986 26.7234 29.0683C26.716 29.0305 26.8828 29.1561 27.5837 29.341C27.7382 29.3818 30.2076 30.1262 31.2027 29.7728C32.4408 29.3331 31.5335 28.3046 31.2027 28.1442C30.4616 27.7849 29.2327 27.311 28.5997 27.0232C26.6676 26.1451 25.3994 22.5851 28.5997 20.7587C29.7556 20.099 32.4142 19.9309 34.3989 20.8951Z" stroke="#69CEF4"></path>
      <path d="M17.4755 32.1008H14.3736L14.3633 16.825L20.2328 16.8476C22.7915 16.8476 25.1365 19.0086 25.1365 22.2573C25.1365 25.5061 22.0073 27.3482 20.2328 27.3482H17.4755V32.1008Z" stroke="#69CEF4"></path>
      <rect x="0.178711" y="0.178833" width="49" height="49" rx="0.5" stroke="#69CEF4"></rect>
      <path d="M17.4844 24.5623V24.5587M17.4844 24.5587V19.5587L19.8434 19.5955C20.7249 19.5955 22.0162 20.5921 22.0162 22.0405C22.0162 23.3071 20.9879 24.5623 19.8276 24.5623L17.4844 24.5587Z" stroke="#69CEF4"></path>
    </g>
    <defs>
      <clipPath id="clip0_438_5">
        <rect width="50" height="50" fill="white"></rect>
      </clipPath>
    </defs>
  </symbol>
</svg>