<svg width="32" height="30" viewBox="0 0 32 30" fill="none" xmlns="http://www.w3.org/2000/svg">
<path fill-rule="evenodd" clip-rule="evenodd" d="M21.1907 29.4158C27.0091 27.2962 31.1639 21.7152 31.1639 15.1637C31.1639 6.78903 24.3748 0 16.0002 0C7.62546 0 0.836426 6.78903 0.836426 15.1637C0.836426 22.4585 5.98751 28.5503 12.8508 30L13.0163 26.8799C13.0163 26.8799 10.6773 27.1083 9.84294 26.8799C9.00858 26.6516 7.40446 25.4708 7.00362 24.6313C6.50256 23.5819 5.66763 22.5325 4.66535 22.0828C4.19309 21.8709 4.94291 21.6342 5.17958 21.597C5.46071 21.5527 7.26897 21.8766 7.67174 22.3826C7.73957 22.4678 7.8085 22.5552 7.87843 22.6439C8.66954 23.6472 9.58914 24.8135 10.5069 24.8135C11.5058 24.8135 13.5174 24.7811 13.5174 22.3826C9.34193 22.3826 3.32925 17.1357 8.00578 10.5397V6.7919C8.00578 6.49208 8.50696 6.34206 8.84099 6.49214L12.6824 8.14115C14.3526 7.54132 18.4947 7.30179 21.0334 8.14115L24.8748 6.49195C25.3759 6.34204 25.7433 6.5819 25.8769 6.94168V10.8393C29.2173 14.5871 27.3801 21.7827 20.1983 22.2325C20.5323 22.7821 21.0546 23.8945 21.0334 24.3312L21.1907 29.4158Z" fill="white"/>
</svg>
