<svg width="83" height="33" viewBox="0 0 83 33" fill="none" xmlns="http://www.w3.org/2000/svg">
<path d="M70.0689 6.6477C72.3199 9.63471 71.2961 14.4989 67.3499 17.4727C63.4036 20.4466 58.4456 20.0901 56.1947 17.1031C53.9437 14.116 54.9675 9.25184 58.9137 6.27801C62.86 3.30418 67.818 3.66069 70.0689 6.6477Z" stroke="white" stroke-width="1.5"/>
<path d="M42.748 12.3823L46.6873 12.1276C46.7772 12.7717 46.942 13.251 47.2116 13.5955C47.6459 14.1347 48.2451 14.4043 49.0389 14.4043C49.6231 14.4043 50.0874 14.2695 50.4019 13.985C50.7015 13.7603 50.8813 13.4008 50.8813 13.0263C50.8813 12.6669 50.7165 12.3224 50.4319 12.0977C50.1323 11.8281 49.4284 11.5585 48.32 11.3188C46.5076 10.9144 45.2045 10.3752 44.4406 9.68619C43.6767 9.04212 43.2423 8.09849 43.2723 7.09494C43.2723 6.40594 43.482 5.71694 43.8714 5.14776C44.3208 4.5037 44.9349 3.99444 45.6688 3.70985C46.4627 3.36535 47.571 3.18561 48.964 3.18561C50.6716 3.18561 51.9747 3.50015 52.8734 4.14422C53.7721 4.77331 54.3113 5.79183 54.476 7.18481L50.5817 7.40949C50.4768 6.81035 50.2671 6.37598 49.9226 6.0914C49.5781 5.80681 49.1288 5.672 48.5446 5.672C48.0653 5.672 47.7059 5.77685 47.4662 5.97157C47.2415 6.15131 47.0917 6.42092 47.1067 6.72048C47.1067 6.94516 47.2265 7.15486 47.4063 7.28966C47.601 7.4694 48.0653 7.63416 48.7993 7.78394C50.6116 8.17338 51.8998 8.56281 52.6936 8.96723C53.4875 9.37164 54.0566 9.86593 54.4011 10.4501C54.7606 11.0492 54.9404 11.7382 54.9254 12.4422C54.9254 13.281 54.6857 14.1198 54.2064 14.8237C53.7121 15.5577 53.0231 16.1269 52.2143 16.4714C51.3606 16.8458 50.2821 17.0405 48.994 17.0405C46.7173 17.0405 45.1446 16.6062 44.2608 15.7224C43.3771 14.8387 42.8529 13.7303 42.748 12.3823ZM0.943632 16.8159V3.42526H7.84862C9.12178 3.42526 10.1103 3.53011 10.7844 3.75478C11.4434 3.96448 12.0276 4.39885 12.417 4.983C12.8514 5.62707 13.0611 6.37598 13.0461 7.15485C13.091 8.47294 12.417 9.73112 11.2637 10.3902C10.8143 10.6448 10.32 10.8245 9.81078 10.9144C10.1852 11.0193 10.5597 11.199 10.8892 11.4087C11.1438 11.6184 11.3535 11.858 11.5483 12.1127C11.7729 12.3673 11.9677 12.6519 12.1324 12.9515L14.1395 16.8308H9.43632L7.21954 12.7118C6.93495 12.1876 6.6953 11.8431 6.47062 11.6783C6.17106 11.4686 5.81158 11.3638 5.4521 11.3638H5.09262V16.8009H0.943632V16.8159ZM5.09262 8.8474H6.84508C7.21954 8.81745 7.57901 8.75753 7.93849 8.66766C8.2081 8.62273 8.44775 8.47295 8.61252 8.24827C9.01693 7.70905 8.95702 6.94516 8.46273 6.48083C8.19312 6.25616 7.66888 6.13633 6.91997 6.13633H5.09262V8.8474ZM0 28.2892L3.93929 28.0346C4.02916 28.6787 4.19392 29.158 4.46353 29.5025C4.88292 30.0417 5.49703 30.3263 6.29088 30.3263C6.87503 30.3263 7.33936 30.1915 7.65391 29.9069C7.95347 29.6672 8.13321 29.3227 8.13321 28.9483C8.13321 28.5888 7.96845 28.2443 7.68386 28.0196C7.3843 27.75 6.68032 27.4804 5.55695 27.2407C3.74457 26.8363 2.44146 26.2971 1.67757 25.6081C0.913676 24.964 0.479305 24.0204 0.509262 23.0169C0.509262 22.3279 0.718958 21.6389 1.10839 21.0697C1.55774 20.4256 2.17185 19.9164 2.90579 19.6318C3.69964 19.2873 4.80803 19.1075 6.20101 19.1075C7.90854 19.1075 9.21165 19.4221 10.1103 20.0661C11.009 20.7102 11.5333 21.7138 11.698 23.1067L7.80369 23.3314C7.69884 22.7323 7.48914 22.2979 7.14464 22.0133C6.81512 21.7287 6.35079 21.5939 5.76664 21.6089C5.28734 21.6089 4.92786 21.7138 4.6882 21.9235C4.44855 22.1032 4.31375 22.3728 4.32873 22.6724C4.32873 22.897 4.44855 23.1067 4.62829 23.2415C4.82301 23.4213 5.28734 23.586 6.02127 23.7358C7.83365 24.1253 9.12178 24.5147 9.91563 24.9191C10.7095 25.3235 11.2787 25.8178 11.6232 26.402C11.9826 27.0011 12.1624 27.6901 12.1624 28.3791C12.1624 29.2179 11.9077 30.0417 11.4434 30.7457C10.9491 31.4796 10.2601 32.0488 9.4513 32.3933C8.59754 32.7677 7.5191 32.9624 6.23097 32.9624C3.95427 32.9624 2.38155 32.5281 1.49783 31.6444C0.61411 30.7457 0.119826 29.6373 0 28.2892H0Z" fill="white"/>
<path d="M19.9213 27.2406L23.546 28.334C23.3513 29.2477 22.9469 30.1165 22.3927 30.8804C21.8834 31.5544 21.2094 32.0786 20.4455 32.4231C19.6666 32.7676 18.6781 32.9474 17.4798 32.9474C16.0269 32.9474 14.8286 32.7377 13.915 32.3183C12.9863 31.8989 12.1925 31.15 11.5184 30.0865C10.8444 29.023 10.5149 27.66 10.5149 25.9974C10.5149 23.7806 11.099 22.0731 12.2823 20.8898C13.4656 19.7066 15.1282 19.1074 17.2851 19.1074C18.9776 19.1074 20.2957 19.4519 21.2693 20.1259C22.2279 20.8149 22.9469 21.8634 23.4262 23.2714L19.7715 24.0802C19.6816 23.7657 19.5468 23.4511 19.3671 23.1815C19.1424 22.867 18.8578 22.6273 18.5133 22.4476C18.1688 22.2678 17.7794 22.1929 17.3899 22.1929C16.4463 22.1929 15.7273 22.5674 15.2331 23.3313C14.8586 23.8855 14.6639 24.7692 14.6639 25.9675C14.6639 27.4503 14.8886 28.4689 15.3379 29.0231C15.7873 29.5772 16.4163 29.8469 17.2401 29.8469C18.034 29.8469 18.6331 29.6222 19.0375 29.1878C19.442 28.7235 19.7415 28.0794 19.9213 27.2406ZM28.384 19.3321H32.518V24.0203H37.0414V19.3321H41.2054V32.7227H37.0414V27.3005H32.518V32.7227H28.384V19.3321Z" fill="white"/>
<path d="M40.636 26.0275C40.636 23.8406 41.2501 22.1331 42.4633 20.9199C43.6766 19.7066 45.3841 19.0925 47.556 19.0925C49.7877 19.0925 51.4952 19.6917 52.7085 20.8899C53.9217 22.0882 54.5209 23.7658 54.5209 25.9226C54.5209 27.4953 54.2513 28.7685 53.727 29.772C53.2178 30.7606 52.4239 31.5694 51.4503 32.1087C50.4468 32.6629 49.2036 32.9474 47.7207 32.9474C46.2079 32.9474 44.9647 32.7078 43.9761 32.2285C42.9576 31.7192 42.1188 30.9254 41.5646 29.9518C40.9505 28.9033 40.636 27.6002 40.636 26.0275ZM44.77 26.0425C44.77 27.3905 45.0246 28.3641 45.5189 28.9632C46.0132 29.5474 46.7022 29.8469 47.5709 29.8469C48.4547 29.8469 49.1437 29.5624 49.6379 28.9782C50.1322 28.394 50.3719 27.3605 50.3719 25.8627C50.3719 24.6045 50.1172 23.6759 49.608 23.1067C49.0987 22.5226 48.4097 22.238 47.541 22.238C46.7771 22.208 46.0432 22.5375 45.5339 23.1217C45.0246 23.7058 44.77 24.6794 44.77 26.0425ZM58.7597 26.0275C58.7597 23.8406 59.3738 22.1331 60.5871 20.9199C61.8003 19.7066 63.5078 19.0925 65.6797 19.0925C67.9115 19.0925 69.634 19.6917 70.8322 20.8899C72.0305 22.0882 72.6446 23.7658 72.6446 25.9226C72.6446 27.4953 72.375 28.7685 71.8507 29.772C71.3415 30.7606 70.5476 31.5694 69.574 32.1087C68.5705 32.6629 67.3273 32.9474 65.8445 32.9474C64.3316 32.9474 63.0884 32.7078 62.0999 32.2285C61.0814 31.7192 60.2426 30.9254 59.6884 29.9518C59.0743 28.9033 58.7597 27.6002 58.7597 26.0275ZM62.8937 26.0425C62.8937 27.3905 63.1484 28.3641 63.6426 28.9632C64.1369 29.5474 64.8259 29.8469 65.6947 29.8469C66.5784 29.8469 67.2674 29.5624 67.7617 28.9782C68.256 28.394 68.4956 27.3605 68.4956 25.8627C68.4956 24.6045 68.241 23.6759 67.7317 23.1067C67.2225 22.5226 66.5335 22.238 65.6647 22.238C64.9008 22.208 64.1519 22.5375 63.6576 23.1217C63.1484 23.7058 62.8937 24.6794 62.8937 26.0425Z" fill="white"/>
<path d="M58.5651 10.9041L60.0629 9.85565L61.9052 12.4769C62.2198 12.8962 62.4594 13.3456 62.6392 13.8399C62.744 14.2143 62.7141 14.6187 62.5643 14.9782C62.3696 15.4276 62.055 15.802 61.6356 16.0716C61.1413 16.4161 60.7219 16.6109 60.3625 16.6708C60.018 16.7307 59.6585 16.6708 59.329 16.521C58.9695 16.3413 58.6549 16.0866 58.4153 15.7571L59.7034 14.5588C59.8083 14.7236 59.9431 14.8734 60.0929 14.9932C60.1977 15.0681 60.3175 15.113 60.4523 15.113C60.5572 15.113 60.662 15.0681 60.7369 15.0082C60.8867 14.9183 60.9915 14.7386 60.9766 14.5588C60.9316 14.3042 60.8268 14.0496 60.662 13.8549L58.5651 10.9041ZM63.0586 12.5667L64.4216 11.4883C64.5714 11.668 64.7661 11.8028 64.9758 11.8777C65.2753 11.9676 65.5899 11.9077 65.8445 11.713C66.0243 11.5931 66.174 11.4284 66.234 11.2187C66.3238 10.9491 66.174 10.6495 65.9044 10.5596C65.8595 10.5447 65.8146 10.5297 65.7696 10.5297C65.5899 10.5147 65.2753 10.5896 64.811 10.7843C64.0471 11.0989 63.448 11.2187 62.9986 11.1737C62.5643 11.1288 62.1599 10.9041 61.9202 10.5297C61.7405 10.275 61.6506 9.97548 61.6356 9.67591C61.6356 9.33141 61.7255 8.98691 61.9202 8.70232C62.2048 8.29791 62.5493 7.95341 62.9687 7.6838C63.5978 7.24943 64.152 7.03973 64.6313 7.03973C65.1106 7.03973 65.5599 7.26441 65.9793 7.72874L64.6313 8.79219C64.3617 8.44769 63.8524 8.3728 63.5079 8.64241L63.463 8.68735C63.3132 8.77722 63.2083 8.91202 63.1484 9.07678C63.1035 9.19661 63.1334 9.33141 63.2083 9.43626C63.2682 9.51115 63.3581 9.57107 63.463 9.57107C63.5828 9.58604 63.7925 9.52613 64.0921 9.39133C64.841 9.07678 65.4101 8.89704 65.7996 8.83713C66.1291 8.77722 66.4736 8.80717 66.7881 8.94198C67.0727 9.0618 67.3124 9.2715 67.4771 9.52613C67.6868 9.8257 67.8067 10.1852 67.8217 10.5596C67.8366 10.9491 67.7318 11.3235 67.5221 11.653C67.2525 12.0575 66.908 12.402 66.5036 12.6716C65.6798 13.2407 65.0057 13.4804 64.4665 13.3905C63.8824 13.3007 63.4031 13.0011 63.0586 12.5667Z" fill="white" fill-opacity="0.902"/>
<path d="M72.2103 19.3321H76.3443V29.4275H82.7999V32.7227H72.1953V19.3321H72.2103Z" fill="white"/>
</svg>
