<svg width="106" height="106" viewBox="0 0 106 106" fill="none" xmlns="http://www.w3.org/2000/svg">
<g clip-path="url(#clip0_334_1915)">
<circle cx="53" cy="53" r="52.5" fill="#69CEF4" stroke="#69CEF4"/>
<path d="M47.8325 104.163L48.0507 103.268L64.8396 97.1253C65.7887 96.9987 67.9407 94.5975 69.3267 93.4888C69.3684 93.4038 69.4434 93.3433 69.5567 93.3119C69.4827 93.3662 69.406 93.4254 69.3267 93.4888C68.9242 94.3076 71.6042 97.4009 72.8667 98.714C69.589 101.256 60.6867 103.406 56.6453 104.163C55.7088 104.878 50.3799 104.461 47.8325 104.163Z" fill="#FFDBBC"/>
<path d="M48.0507 103.268L47.8325 104.163C50.3799 104.461 55.7088 104.878 56.6453 104.163C60.6867 103.406 69.589 101.256 72.8667 98.714C71.4731 97.2646 68.3526 93.6464 69.5566 93.3119C68.1909 94.3153 65.843 96.9915 64.8396 97.1253L48.0507 103.268Z" stroke="black"/>
<path d="M19.9841 51.4681C19.7469 41.5039 22.8508 36.3439 24.4324 35.0094C45.3691 18.2838 67.8527 27.1013 76.4774 33.6008C82.0526 38.998 83.4464 53.3957 83.4464 59.9198C83.8238 58.8218 86.0606 58.4271 87.3016 58.5853C92.6202 59.2634 93.3563 65.7779 92.343 68.0009L89.5257 74.3768C88.314 76.5618 84.6982 76.8274 83.8913 76.0078L81.074 72.894L82.1861 74.3768L75.2912 84.7561C73.9969 86.7384 73.0741 87.8912 72.1012 89.1671C69.5979 92.4501 69.3106 94.6662 64.3861 96.5539L48.6015 103.068C43.7559 104.334 39.606 102.574 37.9256 102.03C36.2961 101.503 33.9403 98.9776 29.2791 96.4111C26.2996 94.7705 25.0663 92.3153 24.1348 90.5958C21.84 86.3591 22.1342 81.8729 22.1342 78.4544C22.9052 73.7688 18.8721 66.9472 18.8721 62.2922C18.8721 60.9019 19.8112 54.9031 19.9841 51.4681Z" fill="#FFDBBF" stroke="black"/>
<path d="M30.7014 66.5696C30.4967 68.0822 29.9775 69.3474 29.2787 70.1943C28.582 71.0387 27.7231 71.4528 26.8114 71.3295C25.9006 71.2063 25.1731 70.5684 24.7163 69.5561C24.2586 68.542 24.0859 67.1729 24.2903 65.6616C24.4948 64.1501 25.0338 62.813 25.7562 61.8943C26.4799 60.974 27.3589 60.5038 28.2594 60.6256C29.1572 60.7471 29.8686 61.4394 30.3112 62.5284C30.7528 63.615 30.906 65.0568 30.7014 66.5696Z" fill="white" stroke="black" stroke-width="0.5"/>
<path d="M54.1459 64.8894C53.8686 66.5492 53.2184 67.9728 52.4043 68.934C51.5863 69.8999 50.6373 70.3646 49.7485 70.2161C48.8597 70.0676 48.1133 69.3197 47.6537 68.1403C47.1963 66.9667 47.0441 65.409 47.3214 63.7493C47.5989 62.0885 48.2023 60.8719 48.9579 60.115C49.7093 59.3625 50.6141 59.059 51.5364 59.2131C53.3572 59.5173 54.7024 61.5587 54.1459 64.8894Z" fill="white" stroke="black" stroke-width="0.5"/>
<path d="M29.6134 68.3219C29.6003 69.0261 29.4059 69.7047 29.0309 70.1902C28.6705 70.6566 28.1204 70.9784 27.2905 70.9629C25.6611 70.9326 24.7628 69.5899 24.7881 68.2321C24.8004 67.5683 25.0389 66.9987 25.4568 66.5993C25.8728 66.2016 26.5072 65.9341 27.3837 65.9504C28.2573 65.9667 28.7956 66.253 29.1213 66.641C29.4571 67.0411 29.6265 67.6202 29.6134 68.3219Z" fill="black" stroke="black"/>
<path d="M52.6722 67.1313C52.6722 68.5032 51.7383 69.8814 50.1204 69.8814C49.2549 69.8814 48.7418 69.5976 48.4317 69.2113C48.1063 68.806 47.9438 68.2125 47.9438 67.4969C47.9438 66.7804 48.1068 66.0903 48.4521 65.5945C48.7803 65.1233 49.2957 64.7909 50.1204 64.7909C50.9958 64.7909 51.6248 65.0721 52.0335 65.4799C52.4444 65.8899 52.6722 66.4671 52.6722 67.1313Z" fill="black" stroke="black"/>
<path d="M83.7232 64.0326C84.1121 63.6791 84.7155 63.1815 85.3395 62.7614M89.9713 64.0326C89.5515 62.2774 88.0793 61.934 87.3957 61.9817C86.9296 61.8334 86.1185 62.237 85.3395 62.7614M85.3395 62.7614C85.9136 63.4077 86.9855 64.977 86.6803 66.0835C86.5654 66.8784 86.1365 68.4682 85.3395 68.4682C84.4828 68.8498 82.8361 69.6606 83.1032 69.8514" stroke="black"/>
<path d="M66.2262 54.9012L10.813 55.3065C10.813 60.9421 12.8728 64.4472 13.8195 66.0486C14.4593 67.1308 15.9471 69.0084 17.0194 70.1818C17.7116 70.9393 19.1814 72.0584 20.8155 72.7417C24.5816 74.3165 30.7434 74.5883 32.912 72.875C33.705 72.2486 33.6553 72.2486 34.0108 71.5684V70.748L32.7276 72.2486C29.2552 75.286 21.9922 72.8084 20.8155 72.2486C19.386 71.5684 18.3569 70.7215 17.4221 69.7672C16.2288 68.5491 15.0575 66.7895 14.5777 65.8298C13.1382 63.6226 12.2186 58.8323 11.9387 56.7131L65.0055 57.3208V58.5482C65.0055 63.4603 61.057 70.2682 58.4128 72.2486C52.2382 76.8731 44.735 73.3643 42.8024 72.2486C39.2226 70.1818 38.6556 63.3588 39.3748 61.308H42.8024C43.661 60.7572 43.1602 60.0557 42.8024 59.7739H32.7276C31.6434 60.616 32.2758 61.1475 32.7276 61.308H38.3739V61.9966C38.3739 71.5684 40.8859 72.5106 43.2076 73.5107C53.2939 77.8556 57.2351 74.6746 57.9191 74.3326C62.681 71.9517 66.2262 61.6536 66.6681 59.9158L83.4479 61.308V60.9197V59.9158V58.5482H83.0933L66.2262 54.9012Z" fill="black" stroke="black" stroke-width="0.5"/>
<path d="M69.1547 57.6876C69.1115 58.097 68.9569 58.434 68.7672 58.6506C68.5765 58.8685 68.3853 58.933 68.2385 58.9175C68.0917 58.902 67.9181 58.799 67.7771 58.5461C67.6369 58.2947 67.556 57.9328 67.5992 57.5234C67.6425 57.1141 67.7971 56.777 67.9867 56.5604C68.1774 56.3425 68.3687 56.2781 68.5154 56.2936C68.6622 56.309 68.8358 56.412 68.9768 56.6649C69.1171 56.9163 69.1979 57.2782 69.1547 57.6876Z" stroke="#69CEF4"/>
<path d="M35.4907 61.4214C35.8809 61.8673 36.3475 62.9856 36.4105 63.9299C36.4941 65.1841 36.4575 67.8726 35.4907 68.696C34.5529 69.4946 34.1494 71.6244 33.8184 72.6259C33.4315 73.7968 32.4838 76.0186 31.5608 76.8903C31.0667 77.4793 30.9755 79.1646 32.9822 79.9005C33.4502 80.072 34.7692 79.4647 36.4105 79.6901M41.511 75.8033C43.1834 77.0743 42.3107 79.4387 41.511 79.9005C41.1224 80.1249 38.4591 79.9005 37.3303 79.9005C36.9472 79.9005 36.7384 79.7351 36.4105 79.6901M36.4105 79.6901C36.1039 80.3734 35.9819 81.5815 36.4105 83.0779C36.9704 85.0329 33.8184 85.5171 33.8184 86.8406C33.8184 87.6741 33.8184 88.5965 36.4105 88.5965C38.0828 88.1583 38.5845 87.2085 39.5879 87.3423C40.4798 87.3144 42.3472 87.3924 42.6817 87.9276C43.908 87.9276 46.5113 87.7102 47.1133 86.8406M38.0828 91.0214C38.7238 91.6345 40.8254 92.493 44.1031 91.0214" stroke="black" stroke-width="0.5"/>
<path d="M50.2195 47.737C48.2631 47.6044 46.0607 49.4503 45.2041 50.3898C45.2041 50.9203 45.7568 51.0254 46.0331 51.0115C46.4642 51.111 47.318 50.8043 47.6911 50.6385C48.1885 49.279 52.7894 49.1601 55.0276 49.2707C55.724 48.8727 55.3178 48.3588 55.0276 48.1515C53.5354 47.6873 51.2005 47.6818 50.2195 47.737Z" fill="black" stroke="black"/>
<path d="M28.9177 47.7875C30.8727 47.6352 33.0935 49.459 33.9595 50.3898C33.9648 50.9204 33.4132 51.0309 33.1367 51.0199C32.7067 51.1237 31.8498 50.8255 31.4751 50.6635C30.9641 49.309 27.2698 48.6769 25.0328 48.8099C24.3325 48.4189 23.8259 48.4603 24.114 48.2502C25.6014 47.771 27.9362 47.7421 28.9177 47.7875Z" fill="black" stroke="black"/>
<path d="M83.734 59.5589L83.0568 60.3908C83.4878 59.3502 83.9874 57.2509 82.5378 57.1785C81.4346 57.4209 79.5653 58.0129 78.9586 58.7844C78.9071 59.0605 78.8618 59.3207 78.8233 59.5589C78.7021 59.2865 78.7681 59.0266 78.9586 58.7844C79.4641 56.075 80.5747 51.8332 81.9036 51.8332C83.7311 51.8332 75.3162 51.2009 74.0276 53.0927C74.0256 53.0964 74.0236 53.0993 74.0216 53.1015C74.0236 53.0986 74.0256 53.0956 74.0276 53.0927C74.2659 52.6498 74.5787 41.4937 76.1959 40.146L72.7532 42.3204L71.6661 40.146L68.9481 43.2264C67.7703 40.7198 65.3785 35.9242 65.2336 36.7939C63.0894 37.6395 58.5837 39.9286 57.7139 42.3204C57.2912 37.2167 55.8295 27.4985 53.3652 29.4555C51.7337 28.7819 49.1421 27.948 46.6429 27.6225C48.1674 29.198 49.0372 32.702 49.2815 34.2572L48.2554 36.7939C46.2618 31.6479 42.1943 29.3951 40.4097 28.9119L31.8935 34.2572H27.8166C27.6052 34.0156 26.8744 34.0397 25.6423 36.0691L21.2829 40.146L22.0159 36.7939L14.833 40.146L18.4977 35.1815L11.7546 32.5429C15.1262 31.6949 21.752 29.8903 21.2829 29.4555C20.6966 28.9119 8.96942 22.5746 6.03763 36.7939C5.23244 31.6633 7.30082 21.6073 22.0159 22.4282L23.6284 20.9623L19.7263 6.07667C19.6624 5.96611 19.6416 5.89284 19.6705 5.86358L19.7263 6.07667C20.5641 7.52604 28.8006 15.384 29.3454 14.5124V12.7533L32.8635 14.5124L32.0348 7.87396C31.9652 7.689 31.9442 7.53607 31.9815 7.44776L32.0348 7.87396C32.317 8.62518 33.3993 9.90473 34.6226 9.52832H36.3817L40.4097 14.5124L43.5645 10.9942L44.7373 12.7533L46.6429 9.52832L47.5225 10.9942L49.2815 0L51.7736 6.88971L53.3652 3.66474C53.8608 4.73973 54.9692 6.88971 55.4383 6.88971C55.9074 6.88971 58.6633 4.73973 59.9826 3.66474L61.0087 10.9942L63.5007 9.52832L64.5268 12.7533L71.6661 10.9942L67.8984 17.0044H71.6661L70.3904 20.9623C72.1399 20.874 75.4708 20.538 76.0941 19.8678L76.1959 19.643C76.1959 19.7218 76.1603 19.7967 76.0941 19.8678L74.9347 22.4282L78.8233 23.6009C77.5991 24.8225 75.5179 27.2363 76.9869 27.1191L83.734 26.2395L80.5051 32.5429L86.8084 31.6633L85.9289 35.1815H89.8868L89.0073 36.7939H90.9129L89.0073 40.146H92.3788L90.9129 43.2264L95.6038 44.1234L90.9129 46.6155L92.3788 47.9348L85.9289 51.8332C89.105 51.8587 93.7636 57.0742 96.3368 57.1785H100.148L97.6634 59.199C94.7224 61.259 90.7664 57.5804 89.0073 58.0494C87.0065 58.2753 83.1508 58.8933 83.734 59.5589Z" fill="black"/>
<path d="M83.734 59.5589L83.0568 60.3908C83.4878 59.3502 83.9874 57.2509 82.5378 57.1785C81.0882 57.497 78.3159 58.4191 78.8233 59.5589C79.2399 56.9836 80.4393 51.8332 81.9036 51.8332C83.734 51.8332 75.29 51.199 74.0216 53.1015C74.2608 52.8371 74.5652 41.505 76.1959 40.146L72.7532 42.3204L71.6661 40.146L68.9481 43.2264C67.7703 40.7198 65.3785 35.9242 65.2336 36.7939C63.0894 37.6395 58.5837 39.9286 57.7139 42.3204C57.2912 37.2167 55.8295 27.4985 53.3653 29.4555C51.7337 28.7819 49.1421 27.948 46.6429 27.6225C48.1674 29.198 49.0372 32.702 49.2815 34.2572L48.2554 36.7939C46.2618 31.6479 42.1943 29.3951 40.4097 28.9119L31.8935 34.2572H27.8166C27.6052 34.0156 26.8744 34.0397 25.6423 36.0691L21.2829 40.146L22.0159 36.7939L14.833 40.146L18.4977 35.1815L11.7546 32.5429C15.1262 31.6949 21.752 29.8903 21.2829 29.4555C20.6966 28.9119 8.96942 22.5746 6.03763 36.7939C5.23244 31.6633 7.30082 21.6073 22.0159 22.4282L23.6284 20.9623L19.6705 5.86358C19.2627 6.2764 28.759 15.4505 29.3454 14.5124V12.7533L32.8635 14.5124L31.9815 7.44776C31.7927 7.89471 33.098 9.9974 34.6226 9.52832H36.3817L40.4097 14.5124L43.5645 10.9942L44.7373 12.7533L46.6429 9.52832L47.5225 10.9942L49.2815 0L51.7736 6.88971L53.3653 3.66474C53.8608 4.73973 54.9692 6.88971 55.4383 6.88971C55.9074 6.88971 58.6633 4.73973 59.9826 3.66474L61.0087 10.9942L63.5007 9.52832L64.5268 12.7533L71.6661 10.9942L67.8984 17.0044H71.6661L70.3904 20.9623C72.3256 20.8646 76.1959 20.4639 76.1959 19.643L74.9347 22.4282L78.8233 23.6009C77.5991 24.8225 75.5179 27.2363 76.9869 27.1191L83.734 26.2395L80.5051 32.5429L86.8084 31.6633L85.9289 35.1815H89.8868L89.0073 36.7939H90.9129L89.0073 40.146H92.3788L90.9129 43.2264L95.6038 44.1234L90.9129 46.6155L92.3788 47.9348L85.9289 51.8332C89.105 51.8587 93.7636 57.0742 96.3368 57.1785H100.148L97.6634 59.199C94.7224 61.259 90.7664 57.5804 89.0073 58.0494C87.0065 58.2753 83.1508 58.8933 83.734 59.5589Z" stroke="black" stroke-width="0.5"/>
<path d="M11.8018 56.0373H64.7924" stroke="#69CEF4" stroke-width="0.5"/>
<path d="M83.8861 60.1828L69.7642 58.0346V57.0589L83.8861 60.1828Z" fill="#69CEF4" stroke="#69CEF4" stroke-width="0.2"/>
</g>
<defs>
<clipPath id="clip0_334_1915">
<rect width="106" height="106" fill="white"/>
</clipPath>
</defs>
</svg>
